G04 Layer_Color=65535*
%FSLAX44Y44*%
%MOMM*%
G71*
G01*
G75*
%ADD32C,0.2540*%
%ADD34C,0.5000*%
%ADD43C,0.1270*%
%ADD44C,0.2000*%
%ADD45C,0.6096*%
%ADD46C,0.1000*%
%ADD47C,0.1524*%
%ADD48C,0.2032*%
G36*
X767080Y567637D02*
X764200D01*
X764249Y567588D01*
X764346Y567539D01*
X764493Y567393D01*
X764737Y567197D01*
X764981Y567002D01*
X765274Y566709D01*
X765567Y566367D01*
X765908Y565977D01*
X766201Y565537D01*
X766543Y565049D01*
X766836Y564512D01*
X767080Y563975D01*
X767324Y563341D01*
X767471Y562657D01*
X767568Y561925D01*
X767617Y561144D01*
Y561095D01*
Y560997D01*
Y560851D01*
X767568Y560656D01*
X767519Y560119D01*
X767422Y559484D01*
X767226Y558654D01*
X766982Y557824D01*
X766592Y556897D01*
X766104Y556018D01*
Y555969D01*
X766055Y555920D01*
X765811Y555627D01*
X765469Y555237D01*
X764981Y554700D01*
X764395Y554163D01*
X763663Y553528D01*
X762833Y552991D01*
X761856Y552454D01*
X761808D01*
X761710Y552405D01*
X761563Y552356D01*
X761368Y552259D01*
X761124Y552161D01*
X760782Y552063D01*
X760001Y551819D01*
X759074Y551575D01*
X758000Y551380D01*
X756828Y551233D01*
X755510Y551185D01*
X754924D01*
X754631Y551233D01*
X754241D01*
X753411Y551331D01*
X752434Y551478D01*
X751409Y551673D01*
X750286Y551917D01*
X749212Y552308D01*
X749164D01*
X749066Y552356D01*
X748919Y552454D01*
X748724Y552552D01*
X748236Y552796D01*
X747601Y553186D01*
X746869Y553675D01*
X746137Y554260D01*
X745453Y554944D01*
X744819Y555774D01*
Y555822D01*
X744770Y555871D01*
X744575Y556164D01*
X744330Y556652D01*
X744037Y557287D01*
X743793Y558068D01*
X743549Y558947D01*
X743354Y559923D01*
X743305Y560948D01*
Y560997D01*
Y561046D01*
Y561290D01*
X743354Y561681D01*
X743403Y562218D01*
X743549Y562755D01*
X743696Y563389D01*
X743940Y564024D01*
X744233Y564659D01*
X744282Y564756D01*
X744379Y564952D01*
X744575Y565244D01*
X744867Y565635D01*
X745160Y566026D01*
X745551Y566514D01*
X746039Y566953D01*
X746527Y567344D01*
X735006D01*
Y571298D01*
X767080D01*
Y567637D01*
D02*
G37*
G36*
Y543667D02*
X767031Y543618D01*
X766885Y543569D01*
X766592Y543471D01*
X766250Y543325D01*
X765811Y543178D01*
X765322Y543081D01*
X764786Y542983D01*
X764151Y542886D01*
X764249Y542788D01*
X764444Y542495D01*
X764786Y542104D01*
X765176Y541519D01*
X765664Y540884D01*
X766104Y540152D01*
X766494Y539419D01*
X766836Y538638D01*
X766885Y538541D01*
X766934Y538297D01*
X767080Y537906D01*
X767226Y537369D01*
X767373Y536685D01*
X767471Y535953D01*
X767568Y535172D01*
X767617Y534293D01*
Y534245D01*
Y534147D01*
Y533952D01*
X767568Y533659D01*
Y533366D01*
X767519Y532975D01*
X767373Y532145D01*
X767178Y531169D01*
X766836Y530242D01*
X766396Y529265D01*
X765762Y528435D01*
X765664Y528338D01*
X765420Y528093D01*
X765030Y527800D01*
X764444Y527410D01*
X763760Y527019D01*
X762979Y526726D01*
X762003Y526482D01*
X760978Y526385D01*
X760685D01*
X760343Y526434D01*
X759952Y526482D01*
X759464Y526580D01*
X758927Y526678D01*
X758390Y526873D01*
X757853Y527117D01*
X757804Y527166D01*
X757609Y527263D01*
X757365Y527410D01*
X757023Y527654D01*
X756682Y527947D01*
X756291Y528338D01*
X755949Y528728D01*
X755608Y529167D01*
X755559Y529216D01*
X755461Y529412D01*
X755315Y529656D01*
X755119Y529997D01*
X754875Y530437D01*
X754680Y530876D01*
X754485Y531413D01*
X754289Y531999D01*
Y532048D01*
X754241Y532243D01*
X754192Y532487D01*
X754094Y532878D01*
X753997Y533366D01*
X753899Y534001D01*
X753801Y534684D01*
X753704Y535514D01*
Y535563D01*
X753655Y535709D01*
Y535953D01*
X753606Y536295D01*
X753557Y536685D01*
X753508Y537125D01*
X753313Y538199D01*
X753118Y539322D01*
X752923Y540493D01*
X752630Y541616D01*
X752483Y542104D01*
X752337Y542544D01*
X752190D01*
X751897Y542593D01*
X750921D01*
X750482Y542544D01*
X749993Y542446D01*
X749456Y542300D01*
X748871Y542104D01*
X748382Y541860D01*
X747943Y541470D01*
X747894Y541421D01*
X747748Y541177D01*
X747504Y540835D01*
X747260Y540347D01*
X747016Y539712D01*
X746771Y538931D01*
X746625Y538004D01*
X746576Y536978D01*
Y536930D01*
Y536881D01*
Y536734D01*
Y536539D01*
X746625Y536051D01*
X746674Y535416D01*
X746820Y534733D01*
X746967Y534098D01*
X747211Y533415D01*
X747552Y532878D01*
X747601Y532829D01*
X747748Y532682D01*
X747992Y532438D01*
X748334Y532145D01*
X748822Y531804D01*
X749408Y531511D01*
X750140Y531169D01*
X750970Y530925D01*
X750433Y527068D01*
X750384D01*
X750335Y527117D01*
X750042Y527166D01*
X749603Y527312D01*
X749017Y527459D01*
X748382Y527703D01*
X747748Y527996D01*
X747064Y528338D01*
X746479Y528777D01*
X746430Y528826D01*
X746234Y529021D01*
X745941Y529265D01*
X745600Y529656D01*
X745258Y530144D01*
X744867Y530779D01*
X744477Y531462D01*
X744135Y532243D01*
Y532292D01*
X744086Y532341D01*
X744037Y532487D01*
X743989Y532634D01*
X743891Y533122D01*
X743696Y533756D01*
X743549Y534538D01*
X743452Y535416D01*
X743354Y536441D01*
X743305Y537515D01*
Y537564D01*
Y537662D01*
Y537808D01*
Y538004D01*
X743354Y538541D01*
X743403Y539224D01*
X743501Y540005D01*
X743598Y540835D01*
X743793Y541616D01*
X744037Y542349D01*
X744086Y542446D01*
X744135Y542641D01*
X744330Y542983D01*
X744526Y543374D01*
X744770Y543813D01*
X745063Y544301D01*
X745405Y544692D01*
X745795Y545082D01*
X745844Y545131D01*
X745990Y545229D01*
X746186Y545375D01*
X746527Y545571D01*
X746918Y545766D01*
X747357Y545961D01*
X747894Y546156D01*
X748480Y546303D01*
X748529D01*
X748675Y546352D01*
X748919Y546400D01*
X749310Y546449D01*
X749798D01*
X750433Y546498D01*
X751165Y546547D01*
X759171D01*
X760294Y546596D01*
X761515D01*
X762637Y546645D01*
X763175Y546693D01*
X763614D01*
X764004Y546742D01*
X764346Y546791D01*
X764395D01*
X764590Y546840D01*
X764883Y546889D01*
X765225Y546986D01*
X765615Y547133D01*
X766104Y547328D01*
X767080Y547767D01*
Y543667D01*
D02*
G37*
G36*
X761027Y523016D02*
X761466Y522919D01*
X762052Y522772D01*
X762686Y522577D01*
X763321Y522284D01*
X764004Y521893D01*
X764102Y521845D01*
X764297Y521698D01*
X764590Y521405D01*
X764981Y521015D01*
X765420Y520575D01*
X765860Y519990D01*
X766299Y519306D01*
X766689Y518525D01*
X766738Y518427D01*
X766836Y518134D01*
X766982Y517695D01*
X767129Y517109D01*
X767324Y516377D01*
X767471Y515547D01*
X767568Y514619D01*
X767617Y513643D01*
Y513594D01*
Y513448D01*
Y513204D01*
X767568Y512911D01*
Y512520D01*
X767519Y512081D01*
X767373Y511056D01*
X767178Y509933D01*
X766836Y508810D01*
X766396Y507687D01*
X766104Y507199D01*
X765762Y506711D01*
Y506662D01*
X765664Y506613D01*
X765420Y506320D01*
X764981Y505930D01*
X764346Y505442D01*
X763565Y504953D01*
X762589Y504465D01*
X761466Y504026D01*
X760148Y503733D01*
X759513Y507638D01*
X759611D01*
X759904Y507687D01*
X760343Y507834D01*
X760880Y507980D01*
X761466Y508224D01*
X762052Y508517D01*
X762637Y508956D01*
X763175Y509445D01*
X763223Y509493D01*
X763370Y509738D01*
X763565Y510079D01*
X763760Y510519D01*
X764004Y511153D01*
X764200Y511837D01*
X764346Y512715D01*
X764395Y513643D01*
Y513692D01*
Y513741D01*
Y513887D01*
Y514082D01*
X764346Y514571D01*
X764249Y515156D01*
X764151Y515840D01*
X763956Y516523D01*
X763663Y517158D01*
X763321Y517695D01*
X763272Y517744D01*
X763126Y517890D01*
X762882Y518134D01*
X762589Y518378D01*
X762198Y518574D01*
X761710Y518818D01*
X761222Y518964D01*
X760685Y519013D01*
X760441D01*
X760245Y518964D01*
X759904Y518867D01*
X759611Y518720D01*
X759220Y518525D01*
X758878Y518232D01*
X758586Y517841D01*
X758537Y517793D01*
X758488Y517646D01*
X758390Y517402D01*
X758195Y517012D01*
X758048Y516475D01*
X757804Y515791D01*
X757658Y515352D01*
X757560Y514912D01*
X757414Y514375D01*
X757267Y513789D01*
Y513741D01*
X757219Y513594D01*
X757170Y513399D01*
X757072Y513106D01*
X756974Y512715D01*
X756877Y512325D01*
X756584Y511397D01*
X756291Y510421D01*
X755998Y509396D01*
X755656Y508468D01*
X755510Y508078D01*
X755363Y507736D01*
X755315Y507687D01*
X755217Y507443D01*
X755022Y507150D01*
X754778Y506808D01*
X754485Y506369D01*
X754094Y505979D01*
X753655Y505539D01*
X753167Y505197D01*
X753118Y505149D01*
X752923Y505051D01*
X752630Y504953D01*
X752239Y504807D01*
X751800Y504612D01*
X751263Y504514D01*
X750677Y504416D01*
X750042Y504367D01*
X749798D01*
X749456Y504416D01*
X749115Y504465D01*
X748675Y504514D01*
X748187Y504660D01*
X747650Y504807D01*
X747162Y505051D01*
X747113Y505100D01*
X746918Y505197D01*
X746674Y505344D01*
X746381Y505588D01*
X746039Y505832D01*
X745697Y506174D01*
X745307Y506564D01*
X744965Y507004D01*
X744916Y507052D01*
X744867Y507199D01*
X744721Y507394D01*
X744575Y507687D01*
X744379Y508029D01*
X744184Y508468D01*
X743989Y508956D01*
X743793Y509493D01*
Y509591D01*
X743696Y509786D01*
X743647Y510079D01*
X743549Y510519D01*
X743452Y511056D01*
X743403Y511593D01*
X743305Y512227D01*
Y512911D01*
Y512960D01*
Y513057D01*
Y513155D01*
Y513350D01*
X743354Y513887D01*
X743403Y514522D01*
X743501Y515303D01*
X743647Y516084D01*
X743842Y516914D01*
X744135Y517695D01*
Y517744D01*
X744184Y517793D01*
X744282Y518037D01*
X744477Y518427D01*
X744672Y518867D01*
X745014Y519355D01*
X745356Y519892D01*
X745795Y520380D01*
X746283Y520771D01*
X746332Y520819D01*
X746527Y520917D01*
X746820Y521112D01*
X747211Y521356D01*
X747699Y521552D01*
X748334Y521796D01*
X749017Y521991D01*
X749798Y522186D01*
X750335Y518330D01*
X750238D01*
X750042Y518281D01*
X749700Y518183D01*
X749310Y518037D01*
X748871Y517841D01*
X748431Y517549D01*
X747943Y517207D01*
X747552Y516768D01*
X747504Y516719D01*
X747406Y516523D01*
X747211Y516231D01*
X747016Y515840D01*
X746869Y515352D01*
X746674Y514717D01*
X746576Y514034D01*
X746527Y513204D01*
Y513155D01*
Y513106D01*
Y512960D01*
Y512764D01*
X746576Y512276D01*
X746625Y511690D01*
X746771Y511056D01*
X746918Y510421D01*
X747162Y509786D01*
X747455Y509298D01*
X747504Y509249D01*
X747601Y509103D01*
X747797Y508956D01*
X748041Y508761D01*
X748334Y508517D01*
X748724Y508371D01*
X749115Y508224D01*
X749554Y508175D01*
X749700D01*
X749847Y508224D01*
X750042D01*
X750482Y508371D01*
X750970Y508615D01*
X751019Y508663D01*
X751067Y508712D01*
X751311Y509005D01*
X751507Y509201D01*
X751653Y509445D01*
X751849Y509786D01*
X751995Y510128D01*
Y510177D01*
X752044Y510275D01*
X752093Y510470D01*
X752190Y510812D01*
X752337Y511251D01*
X752532Y511886D01*
X752727Y512667D01*
X752874Y513106D01*
X753020Y513643D01*
Y513692D01*
X753069Y513838D01*
X753118Y514034D01*
X753215Y514327D01*
X753313Y514668D01*
X753411Y515059D01*
X753655Y515938D01*
X753948Y516914D01*
X754289Y517890D01*
X754582Y518769D01*
X754729Y519160D01*
X754875Y519501D01*
X754924Y519599D01*
X755022Y519794D01*
X755168Y520087D01*
X755363Y520429D01*
X755656Y520868D01*
X756047Y521308D01*
X756438Y521698D01*
X756926Y522089D01*
X756974Y522137D01*
X757170Y522235D01*
X757463Y522382D01*
X757853Y522577D01*
X758341Y522772D01*
X758927Y522919D01*
X759562Y523016D01*
X760294Y523065D01*
X760636D01*
X761027Y523016D01*
D02*
G37*
G36*
X746332Y579988D02*
Y577547D01*
X740376Y576571D01*
X735006D01*
Y581062D01*
X740376D01*
X746332Y579988D01*
D02*
G37*
G36*
X761027Y603763D02*
X761466Y603665D01*
X762052Y603518D01*
X762686Y603323D01*
X763321Y603030D01*
X764004Y602640D01*
X764102Y602591D01*
X764297Y602444D01*
X764590Y602152D01*
X764981Y601761D01*
X765420Y601322D01*
X765860Y600736D01*
X766299Y600052D01*
X766689Y599271D01*
X766738Y599174D01*
X766836Y598881D01*
X766982Y598441D01*
X767129Y597855D01*
X767324Y597123D01*
X767471Y596293D01*
X767568Y595366D01*
X767617Y594389D01*
Y594341D01*
Y594194D01*
Y593950D01*
X767568Y593657D01*
Y593266D01*
X767519Y592827D01*
X767373Y591802D01*
X767178Y590679D01*
X766836Y589556D01*
X766396Y588433D01*
X766104Y587945D01*
X765762Y587457D01*
Y587408D01*
X765664Y587360D01*
X765420Y587066D01*
X764981Y586676D01*
X764346Y586188D01*
X763565Y585700D01*
X762589Y585211D01*
X761466Y584772D01*
X760148Y584479D01*
X759513Y588385D01*
X759611D01*
X759904Y588433D01*
X760343Y588580D01*
X760880Y588726D01*
X761466Y588970D01*
X762052Y589263D01*
X762637Y589703D01*
X763175Y590191D01*
X763223Y590240D01*
X763370Y590484D01*
X763565Y590826D01*
X763760Y591265D01*
X764004Y591900D01*
X764200Y592583D01*
X764346Y593462D01*
X764395Y594389D01*
Y594438D01*
Y594487D01*
Y594633D01*
Y594829D01*
X764346Y595317D01*
X764249Y595903D01*
X764151Y596586D01*
X763956Y597270D01*
X763663Y597904D01*
X763321Y598441D01*
X763272Y598490D01*
X763126Y598637D01*
X762882Y598881D01*
X762589Y599125D01*
X762198Y599320D01*
X761710Y599564D01*
X761222Y599711D01*
X760685Y599759D01*
X760441D01*
X760245Y599711D01*
X759904Y599613D01*
X759611Y599467D01*
X759220Y599271D01*
X758878Y598978D01*
X758586Y598588D01*
X758537Y598539D01*
X758488Y598392D01*
X758390Y598148D01*
X758195Y597758D01*
X758048Y597221D01*
X757804Y596537D01*
X757658Y596098D01*
X757560Y595659D01*
X757414Y595122D01*
X757267Y594536D01*
Y594487D01*
X757219Y594341D01*
X757170Y594145D01*
X757072Y593852D01*
X756974Y593462D01*
X756877Y593071D01*
X756584Y592144D01*
X756291Y591167D01*
X755998Y590142D01*
X755656Y589215D01*
X755510Y588824D01*
X755363Y588482D01*
X755315Y588433D01*
X755217Y588189D01*
X755022Y587896D01*
X754778Y587555D01*
X754485Y587115D01*
X754094Y586725D01*
X753655Y586285D01*
X753167Y585944D01*
X753118Y585895D01*
X752923Y585797D01*
X752630Y585700D01*
X752239Y585553D01*
X751800Y585358D01*
X751263Y585260D01*
X750677Y585163D01*
X750042Y585114D01*
X749798D01*
X749456Y585163D01*
X749115Y585211D01*
X748675Y585260D01*
X748187Y585407D01*
X747650Y585553D01*
X747162Y585797D01*
X747113Y585846D01*
X746918Y585944D01*
X746674Y586090D01*
X746381Y586334D01*
X746039Y586578D01*
X745697Y586920D01*
X745307Y587311D01*
X744965Y587750D01*
X744916Y587799D01*
X744867Y587945D01*
X744721Y588141D01*
X744575Y588433D01*
X744379Y588775D01*
X744184Y589215D01*
X743989Y589703D01*
X743793Y590240D01*
Y590337D01*
X743696Y590533D01*
X743647Y590826D01*
X743549Y591265D01*
X743452Y591802D01*
X743403Y592339D01*
X743305Y592974D01*
Y593657D01*
Y593706D01*
Y593803D01*
Y593901D01*
Y594096D01*
X743354Y594633D01*
X743403Y595268D01*
X743501Y596049D01*
X743647Y596830D01*
X743842Y597660D01*
X744135Y598441D01*
Y598490D01*
X744184Y598539D01*
X744282Y598783D01*
X744477Y599174D01*
X744672Y599613D01*
X745014Y600101D01*
X745356Y600638D01*
X745795Y601126D01*
X746283Y601517D01*
X746332Y601566D01*
X746527Y601663D01*
X746820Y601859D01*
X747211Y602103D01*
X747699Y602298D01*
X748334Y602542D01*
X749017Y602737D01*
X749798Y602933D01*
X750335Y599076D01*
X750238D01*
X750042Y599027D01*
X749700Y598929D01*
X749310Y598783D01*
X748871Y598588D01*
X748431Y598295D01*
X747943Y597953D01*
X747552Y597514D01*
X747504Y597465D01*
X747406Y597270D01*
X747211Y596977D01*
X747016Y596586D01*
X746869Y596098D01*
X746674Y595463D01*
X746576Y594780D01*
X746527Y593950D01*
Y593901D01*
Y593852D01*
Y593706D01*
Y593511D01*
X746576Y593022D01*
X746625Y592437D01*
X746771Y591802D01*
X746918Y591167D01*
X747162Y590533D01*
X747455Y590045D01*
X747504Y589996D01*
X747601Y589849D01*
X747797Y589703D01*
X748041Y589507D01*
X748334Y589263D01*
X748724Y589117D01*
X749115Y588970D01*
X749554Y588922D01*
X749700D01*
X749847Y588970D01*
X750042D01*
X750482Y589117D01*
X750970Y589361D01*
X751019Y589410D01*
X751067Y589459D01*
X751311Y589752D01*
X751507Y589947D01*
X751653Y590191D01*
X751849Y590533D01*
X751995Y590874D01*
Y590923D01*
X752044Y591021D01*
X752093Y591216D01*
X752190Y591558D01*
X752337Y591997D01*
X752532Y592632D01*
X752727Y593413D01*
X752874Y593852D01*
X753020Y594389D01*
Y594438D01*
X753069Y594585D01*
X753118Y594780D01*
X753215Y595073D01*
X753313Y595415D01*
X753411Y595805D01*
X753655Y596684D01*
X753948Y597660D01*
X754289Y598637D01*
X754582Y599515D01*
X754729Y599906D01*
X754875Y600248D01*
X754924Y600345D01*
X755022Y600541D01*
X755168Y600833D01*
X755363Y601175D01*
X755656Y601614D01*
X756047Y602054D01*
X756438Y602444D01*
X756926Y602835D01*
X756974Y602884D01*
X757170Y602981D01*
X757463Y603128D01*
X757853Y603323D01*
X758341Y603518D01*
X758927Y603665D01*
X759562Y603763D01*
X760294Y603811D01*
X760636D01*
X761027Y603763D01*
D02*
G37*
G36*
X767080Y497582D02*
X757365Y493871D01*
Y480397D01*
X767080Y476931D01*
Y472440D01*
X735006Y484693D01*
Y489331D01*
X767080Y502366D01*
Y497582D01*
D02*
G37*
%LPC*%
G36*
X756633Y567734D02*
X755412D01*
X755071Y567686D01*
X754680D01*
X754241Y567637D01*
X753167Y567490D01*
X752044Y567295D01*
X750872Y566953D01*
X749749Y566514D01*
X749261Y566221D01*
X748822Y565879D01*
X748773D01*
X748724Y565782D01*
X748480Y565537D01*
X748090Y565147D01*
X747699Y564610D01*
X747308Y563975D01*
X746918Y563194D01*
X746674Y562315D01*
X746576Y561827D01*
Y561339D01*
Y561290D01*
Y561241D01*
Y561095D01*
X746625Y560900D01*
X746674Y560411D01*
X746820Y559826D01*
X747113Y559142D01*
X747504Y558410D01*
X747992Y557678D01*
X748334Y557336D01*
X748724Y556994D01*
X748822Y556897D01*
X748968Y556848D01*
X749115Y556701D01*
X749359Y556604D01*
X749652Y556457D01*
X749993Y556262D01*
X750384Y556115D01*
X750823Y555969D01*
X751311Y555774D01*
X751897Y555627D01*
X752483Y555530D01*
X753167Y555383D01*
X753899Y555334D01*
X754680Y555237D01*
X755949D01*
X756242Y555285D01*
X756633D01*
X757023Y555334D01*
X758048Y555481D01*
X759122Y555676D01*
X760245Y556018D01*
X761271Y556457D01*
X761759Y556750D01*
X762198Y557092D01*
X762296Y557189D01*
X762540Y557434D01*
X762882Y557824D01*
X763272Y558361D01*
X763711Y558996D01*
X764053Y559728D01*
X764297Y560607D01*
X764346Y561046D01*
X764395Y561534D01*
Y561583D01*
Y561632D01*
Y561778D01*
X764346Y561974D01*
X764297Y562462D01*
X764151Y563048D01*
X763858Y563731D01*
X763516Y564463D01*
X762979Y565244D01*
X762686Y565586D01*
X762296Y565928D01*
X762247D01*
X762198Y566026D01*
X762052Y566074D01*
X761905Y566221D01*
X761661Y566367D01*
X761417Y566514D01*
X761075Y566660D01*
X760685Y566856D01*
X760294Y567002D01*
X759806Y567149D01*
X759269Y567295D01*
X758683Y567441D01*
X758048Y567588D01*
X757365Y567637D01*
X756633Y567734D01*
D02*
G37*
G36*
X756877Y542544D02*
X755412D01*
X755461Y542446D01*
X755510Y542300D01*
X755559Y542153D01*
X755656Y541909D01*
X755705Y541616D01*
X755803Y541323D01*
X755949Y540933D01*
X756047Y540493D01*
X756145Y540005D01*
X756291Y539517D01*
X756438Y538931D01*
X756535Y538297D01*
X756682Y537613D01*
X756779Y536881D01*
X756926Y536100D01*
Y536051D01*
Y536002D01*
X756974Y535709D01*
X757072Y535270D01*
X757170Y534733D01*
X757414Y533610D01*
X757560Y533073D01*
X757707Y532634D01*
Y532585D01*
X757804Y532487D01*
X757902Y532292D01*
X758048Y532097D01*
X758439Y531608D01*
X759025Y531120D01*
X759074D01*
X759171Y531023D01*
X759318Y530974D01*
X759562Y530876D01*
X760148Y530681D01*
X760490Y530632D01*
X760880Y530583D01*
X761124D01*
X761417Y530632D01*
X761808Y530730D01*
X762198Y530876D01*
X762637Y531071D01*
X763077Y531364D01*
X763516Y531755D01*
X763565Y531804D01*
X763663Y531999D01*
X763858Y532243D01*
X764004Y532634D01*
X764200Y533122D01*
X764395Y533756D01*
X764493Y534440D01*
X764541Y535270D01*
Y535319D01*
Y535367D01*
Y535660D01*
X764493Y536051D01*
X764395Y536637D01*
X764297Y537223D01*
X764151Y537906D01*
X763907Y538590D01*
X763565Y539273D01*
X763516Y539371D01*
X763370Y539566D01*
X763175Y539908D01*
X762833Y540298D01*
X762491Y540689D01*
X762003Y541128D01*
X761466Y541567D01*
X760831Y541909D01*
X760782Y541958D01*
X760587Y542007D01*
X760294Y542104D01*
X759855Y542251D01*
X759269Y542349D01*
X758586Y542446D01*
X757804Y542495D01*
X756877Y542544D01*
D02*
G37*
G36*
X753899Y492505D02*
X745063Y489185D01*
X745014D01*
X744867Y489136D01*
X744672Y489038D01*
X744379Y488941D01*
X744037Y488794D01*
X743647Y488648D01*
X742719Y488355D01*
X741645Y487964D01*
X740523Y487574D01*
X739400Y487232D01*
X738326Y486890D01*
X738374D01*
X738472Y486842D01*
X738619D01*
X738863Y486793D01*
X739156Y486695D01*
X739497Y486598D01*
X740278Y486402D01*
X741255Y486158D01*
X742280Y485865D01*
X743403Y485523D01*
X744526Y485133D01*
X753899Y481618D01*
Y492505D01*
D02*
G37*
%LPD*%
D32*
X1435097Y1209036D02*
X1432558Y1211575D01*
X1427479D01*
X1424940Y1209036D01*
Y1206497D01*
X1427479Y1203958D01*
X1432558D01*
X1435097Y1201418D01*
Y1198879D01*
X1432558Y1196340D01*
X1427479D01*
X1424940Y1198879D01*
X1440175Y1209036D02*
X1442714Y1211575D01*
X1447793D01*
X1450332Y1209036D01*
Y1206497D01*
X1447793Y1203958D01*
X1445253D01*
X1447793D01*
X1450332Y1201418D01*
Y1198879D01*
X1447793Y1196340D01*
X1442714D01*
X1440175Y1198879D01*
X1442717Y901696D02*
X1440177Y904235D01*
X1435099D01*
X1432560Y901696D01*
Y899157D01*
X1435099Y896618D01*
X1440177D01*
X1442717Y894078D01*
Y891539D01*
X1440177Y889000D01*
X1435099D01*
X1432560Y891539D01*
X1455413Y889000D02*
Y904235D01*
X1447795Y896618D01*
X1457952D01*
X1450337Y629916D02*
X1447798Y632455D01*
X1442719D01*
X1440180Y629916D01*
Y627377D01*
X1442719Y624837D01*
X1447798D01*
X1450337Y622298D01*
Y619759D01*
X1447798Y617220D01*
X1442719D01*
X1440180Y619759D01*
X1465572Y632455D02*
X1455415D01*
Y624837D01*
X1460493Y627377D01*
X1463033D01*
X1465572Y624837D01*
Y619759D01*
X1463033Y617220D01*
X1457954D01*
X1455415Y619759D01*
X1447797Y373376D02*
X1445258Y375915D01*
X1440179D01*
X1437640Y373376D01*
Y370837D01*
X1440179Y368298D01*
X1445258D01*
X1447797Y365758D01*
Y363219D01*
X1445258Y360680D01*
X1440179D01*
X1437640Y363219D01*
X1463032Y375915D02*
X1457953Y373376D01*
X1452875Y368298D01*
Y363219D01*
X1455414Y360680D01*
X1460493D01*
X1463032Y363219D01*
Y365758D01*
X1460493Y368298D01*
X1452875D01*
X1178567Y1257298D02*
Y1244602D01*
X1181106Y1242063D01*
X1186184D01*
X1188723Y1244602D01*
Y1257298D01*
X1203958Y1254758D02*
X1201419Y1257298D01*
X1196341D01*
X1193802Y1254758D01*
Y1252219D01*
X1196341Y1249680D01*
X1201419D01*
X1203958Y1247141D01*
Y1244602D01*
X1201419Y1242063D01*
X1196341D01*
X1193802Y1244602D01*
X1209037Y1257298D02*
Y1242063D01*
X1216654D01*
X1219193Y1244602D01*
Y1247141D01*
X1216654Y1249680D01*
X1209037D01*
X1216654D01*
X1219193Y1252219D01*
Y1254758D01*
X1216654Y1257298D01*
X1209037D01*
X1338584Y1089783D02*
Y1074548D01*
X1346202D01*
X1348741Y1077087D01*
Y1087243D01*
X1346202Y1089783D01*
X1338584D01*
X1363976Y1074548D02*
X1353819D01*
X1363976Y1084704D01*
Y1087243D01*
X1361437Y1089783D01*
X1356358D01*
X1353819Y1087243D01*
X1374140Y932178D02*
X1371601Y934717D01*
X1366523D01*
X1363983Y932178D01*
Y929639D01*
X1366523Y927100D01*
X1371601D01*
X1374140Y924561D01*
Y922022D01*
X1371601Y919482D01*
X1366523D01*
X1363983Y922022D01*
X1379218Y919482D02*
X1384297D01*
X1381758D01*
Y934717D01*
X1379218Y932178D01*
X914400Y985520D02*
Y1000755D01*
X922018D01*
X924557Y998216D01*
Y993138D01*
X922018Y990598D01*
X914400D01*
X919478D02*
X924557Y985520D01*
X929635Y988059D02*
X932174Y985520D01*
X937253D01*
X939792Y988059D01*
Y998216D01*
X937253Y1000755D01*
X932174D01*
X929635Y998216D01*
Y995677D01*
X932174Y993138D01*
X939792D01*
X1279652Y890524D02*
Y905759D01*
X1287269D01*
X1289809Y903220D01*
Y898141D01*
X1287269Y895602D01*
X1279652D01*
X1284730D02*
X1289809Y890524D01*
X1294887Y903220D02*
X1297426Y905759D01*
X1302505D01*
X1305044Y903220D01*
Y900681D01*
X1302505Y898141D01*
X1305044Y895602D01*
Y893063D01*
X1302505Y890524D01*
X1297426D01*
X1294887Y893063D01*
Y895602D01*
X1297426Y898141D01*
X1294887Y900681D01*
Y903220D01*
X1297426Y898141D02*
X1302505D01*
X1253236Y822237D02*
Y837472D01*
X1260854D01*
X1263393Y834933D01*
Y829855D01*
X1260854Y827315D01*
X1253236D01*
X1258314D02*
X1263393Y822237D01*
X1268471Y837472D02*
X1278628D01*
Y834933D01*
X1268471Y824776D01*
Y822237D01*
X846836Y1223987D02*
Y1239222D01*
X854454D01*
X856993Y1236683D01*
Y1231605D01*
X854454Y1229065D01*
X846836D01*
X851914D02*
X856993Y1223987D01*
X862071D02*
X867149D01*
X864610D01*
Y1239222D01*
X862071Y1236683D01*
X843280Y1046475D02*
X848358D01*
X845819D01*
Y1031240D01*
X843280D01*
X848358D01*
X866133Y1043936D02*
X863593Y1046475D01*
X858515D01*
X855976Y1043936D01*
Y1033779D01*
X858515Y1031240D01*
X863593D01*
X866133Y1033779D01*
X881368Y1046475D02*
X871211D01*
Y1038857D01*
X876289Y1041397D01*
X878829D01*
X881368Y1038857D01*
Y1033779D01*
X878829Y1031240D01*
X873750D01*
X871211Y1033779D01*
X775208Y939795D02*
X780286D01*
X777747D01*
Y924560D01*
X775208D01*
X780286D01*
X798061Y937256D02*
X795521Y939795D01*
X790443D01*
X787904Y937256D01*
Y927099D01*
X790443Y924560D01*
X795521D01*
X798061Y927099D01*
X810757Y924560D02*
Y939795D01*
X803139Y932178D01*
X813296D01*
X879348Y1174491D02*
X884426D01*
X881887D01*
Y1159256D01*
X879348D01*
X884426D01*
X902201Y1171952D02*
X899661Y1174491D01*
X894583D01*
X892044Y1171952D01*
Y1161795D01*
X894583Y1159256D01*
X899661D01*
X902201Y1161795D01*
X907279Y1171952D02*
X909818Y1174491D01*
X914896D01*
X917436Y1171952D01*
Y1169413D01*
X914896Y1166873D01*
X912357D01*
X914896D01*
X917436Y1164334D01*
Y1161795D01*
X914896Y1159256D01*
X909818D01*
X907279Y1161795D01*
X784973Y1130077D02*
Y1135155D01*
Y1132616D01*
X800208D01*
Y1130077D01*
Y1135155D01*
X787512Y1152930D02*
X784973Y1150391D01*
Y1145312D01*
X787512Y1142773D01*
X797669D01*
X800208Y1145312D01*
Y1150391D01*
X797669Y1152930D01*
X800208Y1168165D02*
Y1158008D01*
X790051Y1168165D01*
X787512D01*
X784973Y1165626D01*
Y1160547D01*
X787512Y1158008D01*
X1023254Y1219576D02*
Y1204341D01*
Y1211958D01*
X1033410D01*
Y1219576D01*
Y1204341D01*
X1046106D02*
Y1219576D01*
X1038489Y1211958D01*
X1048645D01*
X1185672Y1074923D02*
Y1059688D01*
Y1067306D01*
X1195829D01*
Y1074923D01*
Y1059688D01*
X1200907Y1072384D02*
X1203446Y1074923D01*
X1208525D01*
X1211064Y1072384D01*
Y1069845D01*
X1208525Y1067306D01*
X1205985D01*
X1208525D01*
X1211064Y1064766D01*
Y1062227D01*
X1208525Y1059688D01*
X1203446D01*
X1200907Y1062227D01*
X969772Y1069858D02*
Y1054623D01*
Y1062240D01*
X979929D01*
Y1069858D01*
Y1054623D01*
X985007D02*
X990085D01*
X987546D01*
Y1069858D01*
X985007Y1067318D01*
X1366520Y1173477D02*
X1356363D01*
Y1165860D01*
X1361442D01*
X1356363D01*
Y1158242D01*
X1371598D02*
X1376677D01*
X1374138D01*
Y1173477D01*
X1371598Y1170938D01*
X965101Y963995D02*
X954944D01*
Y948760D01*
X965101D01*
X954944Y956377D02*
X960022D01*
X980336Y961456D02*
X977797Y963995D01*
X972718D01*
X970179Y961456D01*
Y958917D01*
X972718Y956377D01*
X977797D01*
X980336Y953838D01*
Y951299D01*
X977797Y948760D01*
X972718D01*
X970179Y951299D01*
X985414Y948760D02*
Y963995D01*
X993032D01*
X995571Y961456D01*
Y956377D01*
X993032Y953838D01*
X985414D01*
X917702Y1245103D02*
Y1229868D01*
X925320D01*
X927859Y1232407D01*
Y1242564D01*
X925320Y1245103D01*
X917702D01*
X932937Y1229868D02*
X938015D01*
X935476D01*
Y1245103D01*
X932937Y1242564D01*
X901697Y1043224D02*
X899157Y1045763D01*
X894079D01*
X891540Y1043224D01*
Y1033067D01*
X894079Y1030528D01*
X899157D01*
X901697Y1033067D01*
X906775Y1030528D02*
X911853D01*
X909314D01*
Y1045763D01*
X906775Y1043224D01*
X919471D02*
X922010Y1045763D01*
X927088D01*
X929628Y1043224D01*
Y1040685D01*
X927088Y1038146D01*
X924549D01*
X927088D01*
X929628Y1035606D01*
Y1033067D01*
X927088Y1030528D01*
X922010D01*
X919471Y1033067D01*
X815337Y975356D02*
X812797Y977895D01*
X807719D01*
X805180Y975356D01*
Y965199D01*
X807719Y962660D01*
X812797D01*
X815337Y965199D01*
X820415Y962660D02*
X825493D01*
X822954D01*
Y977895D01*
X820415Y975356D01*
X843268Y962660D02*
X833111D01*
X843268Y972817D01*
Y975356D01*
X840729Y977895D01*
X835650D01*
X833111Y975356D01*
X883459Y891536D02*
X880919Y894075D01*
X875841D01*
X873302Y891536D01*
Y881379D01*
X875841Y878840D01*
X880919D01*
X883459Y881379D01*
X888537Y878840D02*
X893615D01*
X891076D01*
Y894075D01*
X888537Y891536D01*
X901233Y878840D02*
X906311D01*
X903772D01*
Y894075D01*
X901233Y891536D01*
X928373Y838198D02*
X925834Y840738D01*
X920755D01*
X918216Y838198D01*
Y828042D01*
X920755Y825502D01*
X925834D01*
X928373Y828042D01*
X933451Y825502D02*
X938530D01*
X935990D01*
Y840738D01*
X933451Y838198D01*
X946147D02*
X948686Y840738D01*
X953765D01*
X956304Y838198D01*
Y828042D01*
X953765Y825502D01*
X948686D01*
X946147Y828042D01*
Y838198D01*
X787651Y837180D02*
X785111Y839719D01*
X780033D01*
X777494Y837180D01*
Y827023D01*
X780033Y824484D01*
X785111D01*
X787651Y827023D01*
X792729D02*
X795268Y824484D01*
X800347D01*
X802886Y827023D01*
Y837180D01*
X800347Y839719D01*
X795268D01*
X792729Y837180D01*
Y834641D01*
X795268Y832102D01*
X802886D01*
X794509Y810256D02*
X791970Y812795D01*
X786891D01*
X784352Y810256D01*
Y800099D01*
X786891Y797560D01*
X791970D01*
X794509Y800099D01*
X799587Y810256D02*
X802126Y812795D01*
X807205D01*
X809744Y810256D01*
Y807717D01*
X807205Y805178D01*
X809744Y802638D01*
Y800099D01*
X807205Y797560D01*
X802126D01*
X799587Y800099D01*
Y802638D01*
X802126Y805178D01*
X799587Y807717D01*
Y810256D01*
X802126Y805178D02*
X807205D01*
X780573Y722372D02*
X778034Y724911D01*
X772955D01*
X770416Y722372D01*
Y712215D01*
X772955Y709676D01*
X778034D01*
X780573Y712215D01*
X785651Y724911D02*
X795808D01*
Y722372D01*
X785651Y712215D01*
Y709676D01*
X794559Y761996D02*
X792020Y764535D01*
X786941D01*
X784402Y761996D01*
Y751839D01*
X786941Y749300D01*
X792020D01*
X794559Y751839D01*
X809794Y764535D02*
X804715Y761996D01*
X799637Y756917D01*
Y751839D01*
X802176Y749300D01*
X807255D01*
X809794Y751839D01*
Y754378D01*
X807255Y756917D01*
X799637D01*
X939797Y1167684D02*
X937258Y1170223D01*
X932179D01*
X929640Y1167684D01*
Y1157527D01*
X932179Y1154988D01*
X937258D01*
X939797Y1157527D01*
X955032Y1170223D02*
X944875D01*
Y1162606D01*
X949953Y1165145D01*
X952493D01*
X955032Y1162606D01*
Y1157527D01*
X952493Y1154988D01*
X947414D01*
X944875Y1157527D01*
X850901Y810258D02*
X848362Y812797D01*
X843283D01*
X840744Y810258D01*
Y800102D01*
X843283Y797562D01*
X848362D01*
X850901Y800102D01*
X863597Y797562D02*
Y812797D01*
X855979Y805180D01*
X866136D01*
X819959Y1125216D02*
X817420Y1127755D01*
X812341D01*
X809802Y1125216D01*
Y1115059D01*
X812341Y1112520D01*
X817420D01*
X819959Y1115059D01*
X825037Y1125216D02*
X827576Y1127755D01*
X832655D01*
X835194Y1125216D01*
Y1122677D01*
X832655Y1120137D01*
X830115D01*
X832655D01*
X835194Y1117598D01*
Y1115059D01*
X832655Y1112520D01*
X827576D01*
X825037Y1115059D01*
X797557Y1041854D02*
X795017Y1044393D01*
X789939D01*
X787400Y1041854D01*
Y1031697D01*
X789939Y1029158D01*
X795017D01*
X797557Y1031697D01*
X812792Y1029158D02*
X802635D01*
X812792Y1039315D01*
Y1041854D01*
X810253Y1044393D01*
X805174D01*
X802635Y1041854D01*
X789940Y1202638D02*
X787401Y1205178D01*
X782322D01*
X779783Y1202638D01*
Y1192482D01*
X782322Y1189942D01*
X787401D01*
X789940Y1192482D01*
X795018Y1189942D02*
X800097D01*
X797558D01*
Y1205178D01*
X795018Y1202638D01*
D34*
X1404620Y1031240D02*
X1765300D01*
X1404620D02*
Y1270000D01*
X1765300Y1031240D02*
Y1270000D01*
X1404620D02*
X1765300D01*
X1404620Y769620D02*
X1765300D01*
X1404620D02*
Y1008380D01*
X1765300Y769620D02*
Y1008380D01*
X1404620D02*
X1765300D01*
X1404620Y505460D02*
X1765300D01*
X1404620D02*
Y744220D01*
X1765300Y505460D02*
Y744220D01*
X1404620D02*
X1765300D01*
X1404620Y248920D02*
X1765300D01*
X1404620D02*
Y487680D01*
X1765300Y248920D02*
Y487680D01*
X1404620D02*
X1765300D01*
D43*
X1330210Y926740D02*
G03*
X1330210Y926740I-17550J0D01*
G01*
X1033850Y760940D02*
G03*
X1033850Y760940I-2500J0D01*
G01*
X1122810Y380480D02*
G03*
X1122810Y380480I-17550J0D01*
G01*
X802905Y1131475D02*
G03*
X802905Y1131475I-1270J0D01*
G01*
X775970Y842010D02*
G03*
X775970Y842010I-1270J0D01*
G01*
X1292660Y896790D02*
X1332660D01*
X1282710Y916740D02*
Y936740D01*
X1292660Y956690D02*
X1332660D01*
X1342610Y916740D02*
Y936740D01*
X1314420Y1262930D02*
Y1264180D01*
X1239420D02*
X1314420D01*
X1239420Y1262930D02*
Y1264180D01*
X1224770Y1109560D02*
Y1140560D01*
X1203470Y1109560D02*
Y1140560D01*
X1119650Y528650D02*
Y559650D01*
X1140950Y528650D02*
Y559650D01*
X1032700Y793440D02*
Y913440D01*
X1182700D01*
Y793440D02*
Y913440D01*
X1032700Y793440D02*
X1182700D01*
X955100Y773440D02*
X1030100D01*
X955100D02*
Y933440D01*
X1030100D01*
X1190100Y773440D02*
X1195100D01*
Y793440D01*
X1190100Y933440D02*
X1195100D01*
Y913440D02*
Y933440D01*
X884240Y824120D02*
X895040D01*
X884240Y842120D02*
X895040D01*
X885620Y798680D02*
X888620D01*
X885620Y811680D02*
X888620D01*
X888160Y867560D02*
X891160D01*
X888160Y854560D02*
X891160D01*
X1322080Y1042660D02*
Y1111260D01*
X1380480Y1042660D02*
Y1111260D01*
X1075310Y360480D02*
Y400480D01*
X1095260Y410430D02*
X1115260D01*
X1135210Y360480D02*
Y400480D01*
X1095260Y350530D02*
X1115260D01*
X899060Y975850D02*
X930060D01*
X899060Y954550D02*
X930060D01*
X821540Y999920D02*
Y1002920D01*
X834540Y999920D02*
Y1002920D01*
X876220Y994200D02*
Y1010400D01*
X847220Y994200D02*
Y1010400D01*
X821840Y1186560D02*
Y1189560D01*
X808840Y1186560D02*
Y1189560D01*
X788520Y1001140D02*
Y1004140D01*
X801520Y1001140D02*
Y1004140D01*
X824660Y1101240D02*
X827660D01*
X824660Y1088240D02*
X827660D01*
X866630Y1178140D02*
Y1209140D01*
X845330Y1178140D02*
Y1209140D01*
X908580Y1127000D02*
Y1133600D01*
X890730Y1138300D02*
X897430D01*
X879580Y1127000D02*
Y1133600D01*
X930760Y1126920D02*
Y1129920D01*
X943760Y1126920D02*
Y1129920D01*
X799260Y738020D02*
X802260D01*
X799260Y725020D02*
X802260D01*
X776230Y699260D02*
X836230D01*
X776230Y667260D02*
X836230D01*
X1256810Y1102690D02*
Y1133690D01*
X1278110Y1102690D02*
Y1133690D01*
X1102850Y527900D02*
Y558900D01*
X1081550Y527900D02*
Y558900D01*
X799260Y773280D02*
X802260D01*
X799260Y786280D02*
X802260D01*
X792800Y814180D02*
X803600D01*
X792800Y796180D02*
X803600D01*
X1273030Y776390D02*
Y807390D01*
X1251730Y776390D02*
Y807390D01*
X1284390Y860570D02*
X1315390D01*
X1284390Y881870D02*
X1315390D01*
X892660Y1002460D02*
Y1005460D01*
X905660Y1002460D02*
Y1005460D01*
X1136520Y1187240D02*
Y1203440D01*
X1107520Y1187240D02*
Y1203440D01*
X1073000Y1195500D02*
Y1198500D01*
X1086000Y1195500D02*
Y1198500D01*
X1092690Y459320D02*
Y490320D01*
X1071390Y459320D02*
Y490320D01*
X1137820Y1158730D02*
X1168820D01*
X1137820Y1137430D02*
X1168820D01*
X1161900Y1194180D02*
Y1197180D01*
X1174900Y1194180D02*
Y1197180D01*
X1102680Y283100D02*
X1113480D01*
X1102680Y301100D02*
X1113480D01*
D44*
X1359380Y904240D02*
G03*
X1359380Y904240I-1000J0D01*
G01*
X1291920Y1209930D02*
G03*
X1291920Y1209930I-1000J0D01*
G01*
X1078865Y624840D02*
G03*
X1078865Y624840I-22225J0D01*
G01*
X1083760Y334760D02*
G03*
X1083760Y334760I-1000J0D01*
G01*
X852720Y977300D02*
G03*
X852720Y977300I-1000J0D01*
G01*
X884580Y1106200D02*
G03*
X884580Y1106200I-1000J0D01*
G01*
X849030Y683260D02*
G03*
X849030Y683260I-1000J0D01*
G01*
X1113020Y1170340D02*
G03*
X1113020Y1170340I-1000J0D01*
G01*
X1090865Y315894D02*
X1089865Y316894D01*
X1087866D01*
X1086866Y315894D01*
Y311896D01*
X1087866Y310896D01*
X1089865D01*
X1090865Y311896D01*
X1092864Y310896D02*
X1094863D01*
X1093864D01*
Y316894D01*
X1092864Y315894D01*
X1101861Y316894D02*
X1099862Y315894D01*
X1097862Y313895D01*
Y311896D01*
X1098862Y310896D01*
X1100862D01*
X1101861Y311896D01*
Y312895D01*
X1100862Y313895D01*
X1097862D01*
D45*
X1352442Y1019960D02*
G03*
X1352442Y1019960I-3162J0D01*
G01*
D46*
X1117600Y596900D02*
Y622300D01*
X1247140D01*
Y596900D02*
Y622300D01*
X1117600Y596900D02*
X1247140D01*
X1350189Y1143009D02*
X1379783D01*
Y1191037D01*
X1352947D02*
X1379783D01*
X1348308D02*
X1352947D01*
X1348308Y1143009D02*
X1350189D01*
X1348308D02*
Y1191037D01*
X809498Y1136640D02*
Y1151437D01*
X835080D01*
Y1136640D02*
Y1151437D01*
X809498Y1136640D02*
X835080D01*
X967740Y1046480D02*
X1120140D01*
X967740Y1021080D02*
Y1046480D01*
Y1021080D02*
X1120140D01*
Y1046480D01*
X1183640Y1026160D02*
Y1051560D01*
X1287780D01*
Y1026160D02*
Y1051560D01*
X1183640Y1026160D02*
X1287780D01*
X1021095Y1196340D02*
X1046495D01*
Y1145540D02*
Y1196340D01*
X1021095Y1145540D02*
X1046495D01*
X1021095D02*
Y1196340D01*
X1077403Y434258D02*
X1076403Y435258D01*
X1074404D01*
X1073404Y434258D01*
Y433259D01*
X1074404Y432259D01*
X1076403D01*
X1077403Y431259D01*
Y430260D01*
X1076403Y429260D01*
X1074404D01*
X1073404Y430260D01*
X1083401Y429260D02*
X1079402D01*
X1083401Y433259D01*
Y434258D01*
X1082401Y435258D01*
X1080402D01*
X1079402Y434258D01*
X1131570Y1165860D02*
Y1171858D01*
X1134569D01*
X1135569Y1170858D01*
Y1168859D01*
X1134569Y1167859D01*
X1131570D01*
X1133569D02*
X1135569Y1165860D01*
X1137568D02*
X1139567D01*
X1138568D01*
Y1171858D01*
X1137568Y1170858D01*
X1142566Y1165860D02*
X1144566D01*
X1143566D01*
Y1171858D01*
X1142566Y1170858D01*
X1071372Y503682D02*
Y509680D01*
X1074371D01*
X1075371Y508680D01*
Y506681D01*
X1074371Y505681D01*
X1071372D01*
X1073371D02*
X1075371Y503682D01*
X1077370D02*
X1079369D01*
X1078370D01*
Y509680D01*
X1077370Y508680D01*
X1082368D02*
X1083368Y509680D01*
X1085368D01*
X1086367Y508680D01*
Y504682D01*
X1085368Y503682D01*
X1083368D01*
X1082368Y504682D01*
Y508680D01*
X1110062Y568501D02*
Y574499D01*
X1113061D01*
X1114060Y573499D01*
Y571500D01*
X1113061Y570500D01*
X1110062D01*
X1112061D02*
X1114060Y568501D01*
X1120058Y574499D02*
X1118059Y573499D01*
X1116060Y571500D01*
Y569501D01*
X1117059Y568501D01*
X1119059D01*
X1120058Y569501D01*
Y570500D01*
X1119059Y571500D01*
X1116060D01*
X1036402Y647241D02*
Y653239D01*
X1039401D01*
X1040400Y652239D01*
Y650240D01*
X1039401Y649240D01*
X1036402D01*
X1038401D02*
X1040400Y647241D01*
X1046398Y653239D02*
X1042400D01*
Y650240D01*
X1044399Y651240D01*
X1045399D01*
X1046398Y650240D01*
Y648241D01*
X1045399Y647241D01*
X1043399D01*
X1042400Y648241D01*
X1081532Y572262D02*
Y578260D01*
X1084531D01*
X1085531Y577260D01*
Y575261D01*
X1084531Y574261D01*
X1081532D01*
X1083531D02*
X1085531Y572262D01*
X1090529D02*
Y578260D01*
X1087530Y575261D01*
X1091529D01*
X1206582Y1155241D02*
Y1161239D01*
X1209581D01*
X1210580Y1160239D01*
Y1158240D01*
X1209581Y1157240D01*
X1206582D01*
X1208581D02*
X1210580Y1155241D01*
X1212580Y1160239D02*
X1213579Y1161239D01*
X1215579D01*
X1216578Y1160239D01*
Y1159240D01*
X1215579Y1158240D01*
X1214579D01*
X1215579D01*
X1216578Y1157240D01*
Y1156241D01*
X1215579Y1155241D01*
X1213579D01*
X1212580Y1156241D01*
X1256792Y1147064D02*
Y1153062D01*
X1259791D01*
X1260791Y1152062D01*
Y1150063D01*
X1259791Y1149063D01*
X1256792D01*
X1258791D02*
X1260791Y1147064D01*
X1266789D02*
X1262790D01*
X1266789Y1151063D01*
Y1152062D01*
X1265789Y1153062D01*
X1263790D01*
X1262790Y1152062D01*
X1105662Y1229262D02*
X1107661D01*
X1106662D01*
Y1223264D01*
X1105662D01*
X1107661D01*
X1114659Y1228262D02*
X1113659Y1229262D01*
X1111660D01*
X1110660Y1228262D01*
Y1224264D01*
X1111660Y1223264D01*
X1113659D01*
X1114659Y1224264D01*
X1120657Y1229262D02*
X1118658Y1228262D01*
X1116658Y1226263D01*
Y1224264D01*
X1117658Y1223264D01*
X1119658D01*
X1120657Y1224264D01*
Y1225263D01*
X1119658Y1226263D01*
X1116658D01*
X1147621Y584282D02*
X1153619D01*
X1150620D01*
Y588280D01*
X1147621D01*
X1153619D01*
Y594278D02*
Y590280D01*
X1149620Y594278D01*
X1148621D01*
X1147621Y593279D01*
Y591279D01*
X1148621Y590280D01*
X1163255Y1225722D02*
X1162255Y1226722D01*
X1160256D01*
X1159256Y1225722D01*
Y1221724D01*
X1160256Y1220724D01*
X1162255D01*
X1163255Y1221724D01*
X1165254Y1220724D02*
X1167253D01*
X1166254D01*
Y1226722D01*
X1165254Y1225722D01*
X1174251Y1226722D02*
X1170252D01*
Y1223723D01*
X1172252Y1224723D01*
X1173251D01*
X1174251Y1223723D01*
Y1221724D01*
X1173251Y1220724D01*
X1171252D01*
X1170252Y1221724D01*
X1074355Y1226992D02*
X1073355Y1227992D01*
X1071356D01*
X1070356Y1226992D01*
Y1222994D01*
X1071356Y1221994D01*
X1073355D01*
X1074355Y1222994D01*
X1076354Y1221994D02*
X1078353D01*
X1077354D01*
Y1227992D01*
X1076354Y1226992D01*
X1084352Y1221994D02*
Y1227992D01*
X1081352Y1224993D01*
X1085351D01*
D47*
X954219Y1204516D02*
Y1208104D01*
Y1189516D02*
Y1193104D01*
X927011Y1176156D02*
X954139D01*
X927011D02*
Y1186744D01*
Y1221604D02*
X954139D01*
X927011Y1211516D02*
Y1221604D01*
D48*
X844030Y858760D02*
Y888760D01*
X779030Y858760D02*
X844030D01*
X779030D02*
Y888760D01*
X844030D01*
M02*
