G04 Layer_Color=8388736*
%FSLAX44Y44*%
%MOMM*%
G71*
G01*
G75*
%ADD20R,1.8000X0.7000*%
%ADD49R,0.6032X1.5532*%
%ADD50R,2.3032X1.8032*%
%ADD51R,2.1032X2.1032*%
%ADD52R,2.0032X2.1032*%
G04:AMPARAMS|DCode=53|XSize=1.1432mm|YSize=1.9732mm|CornerRadius=0.1674mm|HoleSize=0mm|Usage=FLASHONLY|Rotation=90.000|XOffset=0mm|YOffset=0mm|HoleType=Round|Shape=RoundedRectangle|*
%AMROUNDEDRECTD53*
21,1,1.1432,1.6384,0,0,90.0*
21,1,0.8084,1.9732,0,0,90.0*
1,1,0.3348,0.8192,0.4042*
1,1,0.3348,0.8192,-0.4042*
1,1,0.3348,-0.8192,-0.4042*
1,1,0.3348,-0.8192,0.4042*
%
%ADD53ROUNDEDRECTD53*%
G04:AMPARAMS|DCode=54|XSize=1.2932mm|YSize=1.9732mm|CornerRadius=0.1779mm|HoleSize=0mm|Usage=FLASHONLY|Rotation=90.000|XOffset=0mm|YOffset=0mm|HoleType=Round|Shape=RoundedRectangle|*
%AMROUNDEDRECTD54*
21,1,1.2932,1.6174,0,0,90.0*
21,1,0.9374,1.9732,0,0,90.0*
1,1,0.3558,0.8087,0.4687*
1,1,0.3558,0.8087,-0.4687*
1,1,0.3558,-0.8087,-0.4687*
1,1,0.3558,-0.8087,0.4687*
%
%ADD54ROUNDEDRECTD54*%
%ADD55R,1.4032X2.2032*%
%ADD56R,1.9032X1.3032*%
%ADD57R,1.4032X2.0232*%
%ADD58R,1.5032X1.7032*%
%ADD59R,4.0132X2.9972*%
G04:AMPARAMS|DCode=60|XSize=1.1432mm|YSize=1.9732mm|CornerRadius=0.1674mm|HoleSize=0mm|Usage=FLASHONLY|Rotation=180.000|XOffset=0mm|YOffset=0mm|HoleType=Round|Shape=RoundedRectangle|*
%AMROUNDEDRECTD60*
21,1,1.1432,1.6384,0,0,180.0*
21,1,0.8084,1.9732,0,0,180.0*
1,1,0.3348,-0.4042,0.8192*
1,1,0.3348,0.4042,0.8192*
1,1,0.3348,0.4042,-0.8192*
1,1,0.3348,-0.4042,-0.8192*
%
%ADD60ROUNDEDRECTD60*%
G04:AMPARAMS|DCode=61|XSize=1.2932mm|YSize=1.9732mm|CornerRadius=0.1779mm|HoleSize=0mm|Usage=FLASHONLY|Rotation=180.000|XOffset=0mm|YOffset=0mm|HoleType=Round|Shape=RoundedRectangle|*
%AMROUNDEDRECTD61*
21,1,1.2932,1.6174,0,0,180.0*
21,1,0.9374,1.9732,0,0,180.0*
1,1,0.3558,-0.4687,0.8087*
1,1,0.3558,0.4687,0.8087*
1,1,0.3558,0.4687,-0.8087*
1,1,0.3558,-0.4687,-0.8087*
%
%ADD61ROUNDEDRECTD61*%
%ADD62R,1.7032X1.5032*%
%ADD63R,0.7932X1.5732*%
%ADD64R,0.6032X1.2032*%
%ADD65R,1.3032X0.9032*%
G04:AMPARAMS|DCode=66|XSize=1.4132mm|YSize=0.7932mm|CornerRadius=0.2491mm|HoleSize=0mm|Usage=FLASHONLY|Rotation=90.000|XOffset=0mm|YOffset=0mm|HoleType=Round|Shape=RoundedRectangle|*
%AMROUNDEDRECTD66*
21,1,1.4132,0.2950,0,0,90.0*
21,1,0.9150,0.7932,0,0,90.0*
1,1,0.4982,0.1475,0.4575*
1,1,0.4982,0.1475,-0.4575*
1,1,0.4982,-0.1475,-0.4575*
1,1,0.4982,-0.1475,0.4575*
%
%ADD66ROUNDEDRECTD66*%
G04:AMPARAMS|DCode=67|XSize=2.4432mm|YSize=2.5232mm|CornerRadius=0.3816mm|HoleSize=0mm|Usage=FLASHONLY|Rotation=180.000|XOffset=0mm|YOffset=0mm|HoleType=Round|Shape=RoundedRectangle|*
%AMROUNDEDRECTD67*
21,1,2.4432,1.7600,0,0,180.0*
21,1,1.6800,2.5232,0,0,180.0*
1,1,0.7632,-0.8400,0.8800*
1,1,0.7632,0.8400,0.8800*
1,1,0.7632,0.8400,-0.8800*
1,1,0.7632,-0.8400,-0.8800*
%
%ADD67ROUNDEDRECTD67*%
%ADD68R,1.2032X2.3532*%
%ADD69R,3.4532X2.3532*%
%ADD70R,1.4032X1.4032*%
%ADD71C,1.7012*%
%ADD72R,1.7012X1.7012*%
%ADD73C,1.5112*%
%ADD74R,1.2032X1.2032*%
%ADD75R,1.7012X1.7012*%
%ADD76R,1.2032X1.2032*%
%ADD77C,1.4732*%
D20*
X1363980Y1148080D02*
D03*
X1364392Y1183372D02*
D03*
X924065Y1197610D02*
D03*
D49*
X1279460Y1223605D02*
D03*
X1287080D02*
D03*
X1271840D02*
D03*
X1294700D02*
D03*
X1264220D02*
D03*
D50*
X1315020D02*
D03*
X1238820D02*
D03*
D51*
X1288920Y1249680D02*
D03*
X1264920D02*
D03*
D52*
X1314920D02*
D03*
X1238920D02*
D03*
D53*
X1214120Y1140460D02*
D03*
X1130300Y528750D02*
D03*
X855980Y1209040D02*
D03*
X1267460Y1102790D02*
D03*
X1092200Y558800D02*
D03*
X1262380Y807290D02*
D03*
X1082040Y490220D02*
D03*
D54*
X1214120Y1110410D02*
D03*
X1130300Y558800D02*
D03*
X855980Y1178990D02*
D03*
X1267460Y1132840D02*
D03*
X1092200Y528750D02*
D03*
X1262380Y777240D02*
D03*
X1082040Y460170D02*
D03*
D55*
X1040100Y778440D02*
D03*
X1060100D02*
D03*
X1080100D02*
D03*
X1100100D02*
D03*
X1120100D02*
D03*
X1140100D02*
D03*
X1160100D02*
D03*
X1180100D02*
D03*
Y928440D02*
D03*
X1160100D02*
D03*
X1140100D02*
D03*
X1120100D02*
D03*
X1100100D02*
D03*
X1080100D02*
D03*
X1060100D02*
D03*
X1040100D02*
D03*
D56*
X1195100Y803440D02*
D03*
Y823440D02*
D03*
Y843440D02*
D03*
Y863440D02*
D03*
Y883440D02*
D03*
Y903440D02*
D03*
D57*
X904240Y833120D02*
D03*
X875040D02*
D03*
X783600Y805180D02*
D03*
X812800D02*
D03*
X1122680Y292100D02*
D03*
X1093480D02*
D03*
D58*
X896620Y805180D02*
D03*
X877620D02*
D03*
X880160Y861060D02*
D03*
X899160D02*
D03*
X816660Y1094740D02*
D03*
X835660D02*
D03*
X791260Y731520D02*
D03*
X810260D02*
D03*
Y779780D02*
D03*
X791260D02*
D03*
D59*
X1351280Y1041275D02*
D03*
Y1112645D02*
D03*
D60*
X899160Y965200D02*
D03*
X1315290Y871220D02*
D03*
X1137920Y1148080D02*
D03*
D61*
X929210Y965200D02*
D03*
X1285240Y871220D02*
D03*
X1167970Y1148080D02*
D03*
D62*
X828040Y991920D02*
D03*
Y1010920D02*
D03*
X815340Y1197560D02*
D03*
Y1178560D02*
D03*
X795020Y993140D02*
D03*
Y1012140D02*
D03*
X937260Y1118920D02*
D03*
Y1137920D02*
D03*
X899160Y994460D02*
D03*
Y1013460D02*
D03*
X1079500Y1187500D02*
D03*
Y1206500D02*
D03*
X1168400Y1186180D02*
D03*
Y1205180D02*
D03*
D63*
X852220Y1014000D02*
D03*
X861720D02*
D03*
X871220D02*
D03*
Y990600D02*
D03*
X861720D02*
D03*
X852220D02*
D03*
X1112520Y1207040D02*
D03*
X1122020D02*
D03*
X1131520D02*
D03*
Y1183640D02*
D03*
X1122020D02*
D03*
X1112520D02*
D03*
D64*
X830565Y1152816D02*
D03*
X822916Y1152942D02*
D03*
X815340Y1153160D02*
D03*
X830691Y1133881D02*
D03*
X823041Y1134006D02*
D03*
X815465Y1134225D02*
D03*
D65*
X960615Y1183880D02*
D03*
Y1213880D02*
D03*
D66*
X884580Y1142850D02*
D03*
X903580D02*
D03*
Y1117750D02*
D03*
X894080D02*
D03*
X884580D02*
D03*
D67*
X781880Y683260D02*
D03*
X830580D02*
D03*
D68*
X788530Y844760D02*
D03*
X811530D02*
D03*
X834530D02*
D03*
D69*
X811530Y902760D02*
D03*
D70*
X1691640Y1059520D02*
D03*
X1717040D02*
D03*
X1742440D02*
D03*
X1691640Y1239520D02*
D03*
X1717040D02*
D03*
X1742440D02*
D03*
X1691640Y797900D02*
D03*
X1717040D02*
D03*
X1742440D02*
D03*
X1691640Y977900D02*
D03*
X1717040D02*
D03*
X1742440D02*
D03*
X1691640Y533740D02*
D03*
X1717040D02*
D03*
X1742440D02*
D03*
X1691640Y713740D02*
D03*
X1717040D02*
D03*
X1742440D02*
D03*
X1691640Y277200D02*
D03*
X1717040D02*
D03*
X1742440D02*
D03*
X1691640Y457200D02*
D03*
X1717040D02*
D03*
X1742440D02*
D03*
D71*
X1345160Y949240D02*
D03*
X1280160D02*
D03*
Y904240D02*
D03*
X1127760Y347980D02*
D03*
Y412980D02*
D03*
X1082760D02*
D03*
D72*
X1345160Y904240D02*
D03*
D73*
X1043940Y624840D02*
D03*
X1069340D02*
D03*
D74*
X1130300Y609585D02*
D03*
X1155700Y609600D02*
D03*
X1181100D02*
D03*
X1206500D02*
D03*
X1231900D02*
D03*
X980440Y1033780D02*
D03*
X1005840D02*
D03*
X1031240D02*
D03*
X1056640D02*
D03*
X1082040D02*
D03*
X1107440Y1033795D02*
D03*
X1196340Y1038845D02*
D03*
X1221740Y1038860D02*
D03*
X1247140D02*
D03*
X1272540D02*
D03*
D75*
X1082760Y347980D02*
D03*
D76*
X1033780Y1183640D02*
D03*
X1033795Y1158240D02*
D03*
D77*
X1577340Y1051560D02*
D03*
X764540Y797560D02*
D03*
X835660Y777240D02*
D03*
X927100Y1234440D02*
D03*
X929640Y1214120D02*
D03*
X1343660Y1234440D02*
D03*
X1181100Y1130300D02*
D03*
X835660Y873760D02*
D03*
X767080Y861060D02*
D03*
X795020Y1094740D02*
D03*
X1244600Y845820D02*
D03*
X1158240Y1023620D02*
D03*
X1074374Y988985D02*
D03*
X885624Y1076124D02*
D03*
X848360Y1076960D02*
D03*
X859410Y1107663D02*
D03*
X876300Y1102360D02*
D03*
X1239520Y1099820D02*
D03*
X916940Y1120140D02*
D03*
X982980Y1165860D02*
D03*
X962660Y1125220D02*
D03*
X792480Y878840D02*
D03*
X848360Y972820D02*
D03*
X1163320Y899160D02*
D03*
X1051560Y490220D02*
D03*
X1112520Y647700D02*
D03*
X863600Y680720D02*
D03*
X1158240Y817880D02*
D03*
X1181100Y955040D02*
D03*
X1140460Y807720D02*
D03*
X949960Y975360D02*
D03*
X1122680Y1140460D02*
D03*
X1102360Y1173480D02*
D03*
M02*
