G04 Layer_Color=128*
%FSLAX44Y44*%
%MOMM*%
G71*
G01*
G75*
%ADD82C,0.0508*%
D82*
X1687830Y1059520D02*
X1695450D01*
X1691640Y1055710D02*
Y1063330D01*
X1713230Y1059520D02*
X1720850D01*
X1717040Y1055710D02*
Y1063330D01*
X1738630Y1059520D02*
X1746250D01*
X1742440Y1055710D02*
Y1063330D01*
X1687830Y1239520D02*
X1695450D01*
X1691640Y1235710D02*
Y1243330D01*
X1713230Y1239520D02*
X1720850D01*
X1717040Y1235710D02*
Y1243330D01*
X1738630Y1239520D02*
X1746250D01*
X1742440Y1235710D02*
Y1243330D01*
X1687830Y797900D02*
X1695450D01*
X1691640Y794090D02*
Y801710D01*
X1713230Y797900D02*
X1720850D01*
X1717040Y794090D02*
Y801710D01*
X1738630Y797900D02*
X1746250D01*
X1742440Y794090D02*
Y801710D01*
X1687830Y977900D02*
X1695450D01*
X1691640Y974090D02*
Y981710D01*
X1713230Y977900D02*
X1720850D01*
X1717040Y974090D02*
Y981710D01*
X1738630Y977900D02*
X1746250D01*
X1742440Y974090D02*
Y981710D01*
X1687830Y533740D02*
X1695450D01*
X1691640Y529930D02*
Y537550D01*
X1713230Y533740D02*
X1720850D01*
X1717040Y529930D02*
Y537550D01*
X1738630Y533740D02*
X1746250D01*
X1742440Y529930D02*
Y537550D01*
X1687830Y713740D02*
X1695450D01*
X1691640Y709930D02*
Y717550D01*
X1713230Y713740D02*
X1720850D01*
X1717040Y709930D02*
Y717550D01*
X1738630Y713740D02*
X1746250D01*
X1742440Y709930D02*
Y717550D01*
X1687830Y277200D02*
X1695450D01*
X1691640Y273390D02*
Y281010D01*
X1713230Y277200D02*
X1720850D01*
X1717040Y273390D02*
Y281010D01*
X1738630Y277200D02*
X1746250D01*
X1742440Y273390D02*
Y281010D01*
X1687830Y457200D02*
X1695450D01*
X1691640Y453390D02*
Y461010D01*
X1713230Y457200D02*
X1720850D01*
X1717040Y453390D02*
Y461010D01*
X1738630Y457200D02*
X1746250D01*
X1742440Y453390D02*
Y461010D01*
X1340210Y949240D02*
X1350110D01*
X1345160Y944290D02*
Y954190D01*
X1340210Y904240D02*
X1350110D01*
X1345160Y899290D02*
Y909190D01*
X1275210Y949240D02*
X1285110D01*
X1280160Y944290D02*
Y954190D01*
X1275210Y904240D02*
X1285110D01*
X1280160Y899290D02*
Y909190D01*
X1039940Y624840D02*
X1047940D01*
X1043940Y620840D02*
Y628840D01*
X1065340Y624840D02*
X1073340D01*
X1069340Y620840D02*
Y628840D01*
X1126490Y609585D02*
X1134110D01*
X1130300Y605775D02*
Y613395D01*
X1151890Y609600D02*
X1159510D01*
X1155700Y605790D02*
Y613410D01*
X1177290Y609600D02*
X1184910D01*
X1181100Y605790D02*
Y613410D01*
X1202690Y609600D02*
X1210310D01*
X1206500Y605790D02*
Y613410D01*
X1228090Y609600D02*
X1235710D01*
X1231900Y605790D02*
Y613410D01*
X1122810Y347980D02*
X1132710D01*
X1127760Y343030D02*
Y352930D01*
X1077810Y347980D02*
X1087710D01*
X1082760Y343030D02*
Y352930D01*
X1122810Y412980D02*
X1132710D01*
X1127760Y408030D02*
Y417930D01*
X1077810Y412980D02*
X1087710D01*
X1082760Y408030D02*
Y417930D01*
X976630Y1033780D02*
X984250D01*
X980440Y1029970D02*
Y1037590D01*
X1002030Y1033780D02*
X1009650D01*
X1005840Y1029970D02*
Y1037590D01*
X1027430Y1033780D02*
X1035050D01*
X1031240Y1029970D02*
Y1037590D01*
X1052830Y1033780D02*
X1060450D01*
X1056640Y1029970D02*
Y1037590D01*
X1078230Y1033780D02*
X1085850D01*
X1082040Y1029970D02*
Y1037590D01*
X1103630Y1033795D02*
X1111250D01*
X1107440Y1029985D02*
Y1037605D01*
X1192530Y1038845D02*
X1200150D01*
X1196340Y1035035D02*
Y1042655D01*
X1217930Y1038860D02*
X1225550D01*
X1221740Y1035050D02*
Y1042670D01*
X1243330Y1038860D02*
X1250950D01*
X1247140Y1035050D02*
Y1042670D01*
X1268730Y1038860D02*
X1276350D01*
X1272540Y1035050D02*
Y1042670D01*
X1029970Y1183640D02*
X1037590D01*
X1033780Y1179830D02*
Y1187450D01*
X1029985Y1158240D02*
X1037605D01*
X1033795Y1154430D02*
Y1162050D01*
X1573784Y1051560D02*
X1580896D01*
X1577340Y1048004D02*
Y1055116D01*
X760984Y797560D02*
X768096D01*
X764540Y794004D02*
Y801116D01*
X832104Y777240D02*
X839216D01*
X835660Y773684D02*
Y780796D01*
X923544Y1234440D02*
X930656D01*
X927100Y1230884D02*
Y1237996D01*
X926084Y1214120D02*
X933196D01*
X929640Y1210564D02*
Y1217676D01*
X1340104Y1234440D02*
X1347216D01*
X1343660Y1230884D02*
Y1237996D01*
X1177544Y1130300D02*
X1184656D01*
X1181100Y1126744D02*
Y1133856D01*
X832104Y873760D02*
X839216D01*
X835660Y870204D02*
Y877316D01*
X763524Y861060D02*
X770636D01*
X767080Y857504D02*
Y864616D01*
X791464Y1094740D02*
X798576D01*
X795020Y1091184D02*
Y1098296D01*
X1241044Y845820D02*
X1248156D01*
X1244600Y842264D02*
Y849376D01*
X1154684Y1023620D02*
X1161796D01*
X1158240Y1020064D02*
Y1027176D01*
X1070818Y988985D02*
X1077930D01*
X1074374Y985429D02*
Y992541D01*
X882068Y1076124D02*
X889180D01*
X885624Y1072568D02*
Y1079680D01*
X844804Y1076960D02*
X851916D01*
X848360Y1073404D02*
Y1080516D01*
X855854Y1107663D02*
X862966D01*
X859410Y1104107D02*
Y1111218D01*
X872744Y1102360D02*
X879856D01*
X876300Y1098804D02*
Y1105916D01*
X1235964Y1099820D02*
X1243076D01*
X1239520Y1096264D02*
Y1103376D01*
X913384Y1120140D02*
X920496D01*
X916940Y1116584D02*
Y1123696D01*
X979424Y1165860D02*
X986536D01*
X982980Y1162304D02*
Y1169416D01*
X959104Y1125220D02*
X966216D01*
X962660Y1121664D02*
Y1128776D01*
X788924Y878840D02*
X796036D01*
X792480Y875284D02*
Y882396D01*
X844804Y972820D02*
X851916D01*
X848360Y969264D02*
Y976376D01*
X1159764Y899160D02*
X1166876D01*
X1163320Y895604D02*
Y902716D01*
X1048004Y490220D02*
X1055116D01*
X1051560Y486664D02*
Y493776D01*
X1108964Y647700D02*
X1116076D01*
X1112520Y644144D02*
Y651256D01*
X860044Y680720D02*
X867156D01*
X863600Y677164D02*
Y684276D01*
X1154684Y817880D02*
X1161796D01*
X1158240Y814324D02*
Y821436D01*
X1177544Y955040D02*
X1184656D01*
X1181100Y951484D02*
Y958596D01*
X1136904Y807720D02*
X1144016D01*
X1140460Y804164D02*
Y811276D01*
X946404Y975360D02*
X953516D01*
X949960Y971804D02*
Y978916D01*
X1119124Y1140460D02*
X1126236D01*
X1122680Y1136904D02*
Y1144016D01*
X1098804Y1173480D02*
X1105916D01*
X1102360Y1169924D02*
Y1177036D01*
M02*
