G04 Layer_Color=32768*
%FSLAX44Y44*%
%MOMM*%
G71*
G01*
G75*
%ADD43C,0.1270*%
%ADD80C,0.0500*%
%ADD81C,1.0000*%
%ADD82C,0.0508*%
D43*
X1318780Y1024460D02*
Y1129460D01*
X1383780D01*
Y1024460D02*
Y1129460D01*
X1318780Y1024460D02*
X1383780D01*
D80*
X1355160Y894240D02*
Y959240D01*
X1270160D02*
X1355160D01*
X1270160Y894240D02*
Y959240D01*
Y894240D02*
X1355160D01*
X1227420Y1213680D02*
X1326420D01*
X1227420D02*
Y1273680D01*
X1326420D01*
Y1213680D02*
Y1273680D01*
X1202720Y1102460D02*
X1225520D01*
Y1147660D01*
X1202720D02*
X1225520D01*
X1202720Y1102460D02*
Y1147660D01*
X1118900Y566750D02*
X1141700D01*
X1118900Y521550D02*
Y566750D01*
Y521550D02*
X1141700D01*
Y566750D01*
X1206350Y765940D02*
Y940940D01*
X952600D02*
X1206350D01*
X952600Y765940D02*
Y940940D01*
Y765940D02*
X1206350D01*
X912720Y821620D02*
Y844620D01*
X866560Y821620D02*
Y844620D01*
X912720D01*
X866560Y821620D02*
X912720D01*
X1072760Y337980D02*
X1137760D01*
Y422980D01*
X1072760D02*
X1137760D01*
X1072760Y337980D02*
Y422980D01*
X937160Y953800D02*
Y976600D01*
X891960D02*
X937160D01*
X891960Y953800D02*
Y976600D01*
Y953800D02*
X937160D01*
X878720Y980800D02*
Y1023800D01*
X844720D02*
X878720D01*
X844720Y980800D02*
Y1023800D01*
Y980800D02*
X878720D01*
X844580Y1171040D02*
X867380D01*
Y1216240D01*
X844580D02*
X867380D01*
X844580Y1171040D02*
Y1216240D01*
X877080Y1109200D02*
X911080D01*
Y1151400D01*
X877080D02*
X911080D01*
X877080Y1109200D02*
Y1151400D01*
X768130Y664760D02*
X844280D01*
X768130D02*
Y701760D01*
X844330D01*
X844280Y664760D02*
X844330Y701760D01*
X775530Y831260D02*
Y916260D01*
X847530D01*
Y831260D02*
Y916260D01*
X775530Y831260D02*
X847530D01*
X1256060Y1140790D02*
X1278860D01*
X1256060Y1095590D02*
Y1140790D01*
Y1095590D02*
X1278860D01*
Y1140790D01*
X1080800Y520800D02*
X1103600D01*
Y566000D01*
X1080800D02*
X1103600D01*
X1080800Y520800D02*
Y566000D01*
X775120Y793680D02*
Y816680D01*
X821280Y793680D02*
Y816680D01*
X775120Y793680D02*
X821280D01*
X775120Y816680D02*
X821280D01*
X1250980Y769290D02*
X1273780D01*
Y814490D01*
X1250980D02*
X1273780D01*
X1250980Y769290D02*
Y814490D01*
X1277290Y859820D02*
Y882620D01*
Y859820D02*
X1322490D01*
Y882620D01*
X1277290D02*
X1322490D01*
X1139020Y1173840D02*
Y1216840D01*
X1105020D02*
X1139020D01*
X1105020Y1173840D02*
Y1216840D01*
Y1173840D02*
X1139020D01*
X1070640Y452220D02*
X1093440D01*
Y497420D01*
X1070640D02*
X1093440D01*
X1070640Y452220D02*
Y497420D01*
X1175920Y1136680D02*
Y1159480D01*
X1130720D02*
X1175920D01*
X1130720Y1136680D02*
Y1159480D01*
Y1136680D02*
X1175920D01*
X1131160Y280600D02*
Y303600D01*
X1085000Y280600D02*
Y303600D01*
X1131160D01*
X1085000Y280600D02*
X1131160D01*
D81*
X726440Y231140D02*
X1775460D01*
X726440Y1282700D02*
X1775460D01*
X726440D02*
X726440Y231140D01*
X1775460D02*
Y1282700D01*
D82*
X905850Y795350D02*
Y815010D01*
X868390Y795350D02*
Y815010D01*
Y795350D02*
X905850D01*
X868390Y815010D02*
X905850D01*
X870930Y851230D02*
Y870890D01*
X908390Y851230D02*
Y870890D01*
X870930D02*
X908390D01*
X870930Y851230D02*
X908390D01*
X818210Y982690D02*
X837870D01*
X818210Y1020150D02*
X837870D01*
X818210Y982690D02*
Y1020150D01*
X837870Y982690D02*
Y1020150D01*
X805510Y1206790D02*
X825170D01*
X805510Y1169330D02*
X825170D01*
Y1206790D01*
X805510Y1169330D02*
Y1206790D01*
X785190Y983910D02*
X804850D01*
X785190Y1021370D02*
X804850D01*
X785190Y983910D02*
Y1021370D01*
X804850Y983910D02*
Y1021370D01*
X807430Y1084910D02*
Y1104570D01*
X844890Y1084910D02*
Y1104570D01*
X807430D02*
X844890D01*
X807430Y1084910D02*
X844890D01*
X927430Y1109690D02*
X947090D01*
X927430Y1147150D02*
X947090D01*
X927430Y1109690D02*
Y1147150D01*
X947090Y1109690D02*
Y1147150D01*
X782030Y721690D02*
Y741350D01*
X819490Y721690D02*
Y741350D01*
X782030D02*
X819490D01*
X782030Y721690D02*
X819490D01*
Y769950D02*
Y789610D01*
X782030Y769950D02*
Y789610D01*
Y769950D02*
X819490D01*
X782030Y789610D02*
X819490D01*
X889330Y985230D02*
X908990D01*
X889330Y1022690D02*
X908990D01*
X889330Y985230D02*
Y1022690D01*
X908990Y985230D02*
Y1022690D01*
X1069670Y1178270D02*
X1089330D01*
X1069670Y1215730D02*
X1089330D01*
X1069670Y1178270D02*
Y1215730D01*
X1089330Y1178270D02*
Y1215730D01*
X1158570Y1176950D02*
X1178230D01*
X1158570Y1214410D02*
X1178230D01*
X1158570Y1176950D02*
Y1214410D01*
X1178230Y1176950D02*
Y1214410D01*
M02*
