G04 Layer_Color=16711935*
%FSLAX44Y44*%
%MOMM*%
G71*
G01*
G75*
%ADD43C,0.1270*%
%ADD44C,0.2000*%
%ADD47C,0.1524*%
%ADD78C,0.1016*%
%ADD79C,0.0000*%
G36*
X886104Y853798D02*
X878603D01*
Y868299D01*
X886104D01*
Y853798D01*
D02*
G37*
G36*
X843940Y842112D02*
X825373D01*
Y842130D01*
Y850773D01*
X843940D01*
Y842112D01*
D02*
G37*
G36*
X797676Y842113D02*
X797668D01*
Y842093D01*
X779145D01*
Y842113D01*
Y850773D01*
X797676D01*
Y842113D01*
D02*
G37*
G36*
X900582Y853798D02*
X893081D01*
Y868299D01*
X900582D01*
Y853798D01*
D02*
G37*
G36*
X802282Y991583D02*
X787781D01*
Y999084D01*
X802282D01*
Y991583D01*
D02*
G37*
G36*
X835302Y990363D02*
X820801D01*
Y997864D01*
X835302D01*
Y990363D01*
D02*
G37*
G36*
X820819Y885085D02*
X820813D01*
Y885077D01*
X802259D01*
Y885085D01*
Y917067D01*
X820819D01*
Y885085D01*
D02*
G37*
G36*
X797339Y772541D02*
X789838D01*
Y787042D01*
X797339D01*
Y772541D01*
D02*
G37*
G36*
X811682Y724258D02*
X804181D01*
Y738759D01*
X811682D01*
Y724258D01*
D02*
G37*
G36*
X797204D02*
X789703D01*
Y738759D01*
X797204D01*
Y724258D01*
D02*
G37*
G36*
X811817Y772541D02*
X804316D01*
Y787042D01*
X811817D01*
Y772541D01*
D02*
G37*
G36*
X820815Y842088D02*
X802259D01*
Y842114D01*
Y850773D01*
X820815D01*
Y842088D01*
D02*
G37*
G36*
X898177Y797941D02*
X890676D01*
Y812442D01*
X898177D01*
Y797941D01*
D02*
G37*
G36*
X883699D02*
X876198D01*
Y812442D01*
X883699D01*
Y797941D01*
D02*
G37*
G36*
X1175662Y1184623D02*
X1161161D01*
Y1192124D01*
X1175662D01*
Y1184623D01*
D02*
G37*
G36*
X822579Y1177138D02*
X808078D01*
Y1184639D01*
X822579D01*
Y1177138D01*
D02*
G37*
G36*
X944522Y1131841D02*
X930021D01*
Y1139342D01*
X944522D01*
Y1131841D01*
D02*
G37*
G36*
X1086762Y1185943D02*
X1072261D01*
Y1193444D01*
X1086762D01*
Y1185943D01*
D02*
G37*
G36*
Y1200421D02*
X1072261D01*
Y1207922D01*
X1086762D01*
Y1200421D01*
D02*
G37*
G36*
X1175662Y1199101D02*
X1161161D01*
Y1206602D01*
X1175662D01*
Y1199101D01*
D02*
G37*
G36*
X822579Y1191616D02*
X808078D01*
Y1199117D01*
X822579D01*
Y1191616D01*
D02*
G37*
G36*
X802282Y1006061D02*
X787781D01*
Y1013562D01*
X802282D01*
Y1006061D01*
D02*
G37*
G36*
X835302Y1004841D02*
X820801D01*
Y1012342D01*
X835302D01*
Y1004841D01*
D02*
G37*
G36*
X906422Y992903D02*
X891921D01*
Y1000404D01*
X906422D01*
Y992903D01*
D02*
G37*
G36*
Y1007381D02*
X891921D01*
Y1014882D01*
X906422D01*
Y1007381D01*
D02*
G37*
G36*
X944522Y1117363D02*
X930021D01*
Y1124864D01*
X944522D01*
Y1117363D01*
D02*
G37*
G36*
X837082Y1087478D02*
X829581D01*
Y1101979D01*
X837082D01*
Y1087478D01*
D02*
G37*
G36*
X822604D02*
X815103D01*
Y1101979D01*
X822604D01*
Y1087478D01*
D02*
G37*
D43*
X1330210Y926740D02*
G03*
X1330210Y926740I-17550J0D01*
G01*
X1122810Y380480D02*
G03*
X1122810Y380480I-17550J0D01*
G01*
X1342610Y896790D02*
Y956690D01*
X1282710D02*
X1342610D01*
X1282710Y896790D02*
Y956690D01*
Y896790D02*
X1342610D01*
X1239420Y1220680D02*
X1314420D01*
X1239420D02*
Y1264180D01*
Y1271180D01*
X1314420D01*
Y1264180D02*
Y1271180D01*
Y1220680D02*
Y1264180D01*
X1239420D02*
X1314420D01*
X1205320Y1108560D02*
X1222920D01*
X1205320Y1141560D02*
X1222920D01*
Y1108560D02*
Y1141560D01*
X1205320Y1108560D02*
Y1141560D01*
X1121500Y560650D02*
X1139100D01*
X1121500Y527650D02*
X1139100D01*
X1121500D02*
Y560650D01*
X1139100Y527650D02*
Y560650D01*
X955100Y773440D02*
Y933440D01*
X1195100D01*
Y773440D02*
Y933440D01*
X955100Y773440D02*
X1195100D01*
X872640Y824120D02*
Y842120D01*
X906640Y824120D02*
Y842120D01*
X872640D02*
X906640D01*
X872640Y824120D02*
X906640D01*
X1075310Y350530D02*
X1135210D01*
Y410430D01*
X1075310D02*
X1135210D01*
X1075310Y350530D02*
Y410430D01*
X931060Y956400D02*
Y974000D01*
X898060Y956400D02*
Y974000D01*
X931060D01*
X898060Y956400D02*
X931060D01*
X876220Y994170D02*
Y1010430D01*
X847220D02*
X876220D01*
X847220Y994170D02*
Y1010430D01*
Y994170D02*
X876220D01*
X847180Y1177140D02*
X864780D01*
X847180Y1210140D02*
X864780D01*
Y1177140D02*
Y1210140D01*
X847180Y1177140D02*
Y1210140D01*
X908580Y1122300D02*
Y1138300D01*
X879580Y1122300D02*
Y1138300D01*
X908580D01*
X879580Y1122300D02*
X908580D01*
X776230Y667260D02*
X836230D01*
X776230D02*
Y699260D01*
X836230D01*
Y667260D02*
Y699260D01*
X1258660Y1134690D02*
X1276260D01*
X1258660Y1101690D02*
X1276260D01*
X1258660D02*
Y1134690D01*
X1276260Y1101690D02*
Y1134690D01*
X1083400Y526900D02*
X1101000D01*
X1083400Y559900D02*
X1101000D01*
Y526900D02*
Y559900D01*
X1083400Y526900D02*
Y559900D01*
X815200Y796180D02*
Y814180D01*
X781200Y796180D02*
Y814180D01*
Y796180D02*
X815200D01*
X781200Y814180D02*
X815200D01*
X1253580Y775390D02*
X1271180D01*
X1253580Y808390D02*
X1271180D01*
Y775390D02*
Y808390D01*
X1253580Y775390D02*
Y808390D01*
X1283390Y862420D02*
Y880020D01*
X1316390Y862420D02*
Y880020D01*
X1283390Y862420D02*
X1316390D01*
X1283390Y880020D02*
X1316390D01*
X1136520Y1187210D02*
Y1203470D01*
X1107520D02*
X1136520D01*
X1107520Y1187210D02*
Y1203470D01*
Y1187210D02*
X1136520D01*
X1073240Y458320D02*
X1090840D01*
X1073240Y491320D02*
X1090840D01*
Y458320D02*
Y491320D01*
X1073240Y458320D02*
Y491320D01*
X1169820Y1139280D02*
Y1156880D01*
X1136820Y1139280D02*
Y1156880D01*
X1169820D01*
X1136820Y1139280D02*
X1169820D01*
X1091080Y283100D02*
Y301100D01*
X1125080Y283100D02*
Y301100D01*
X1091080D02*
X1125080D01*
X1091080Y283100D02*
X1125080D01*
D44*
X1291920Y1209930D02*
G03*
X1291920Y1209930I-1000J0D01*
G01*
X1066165Y608965D02*
G03*
X1066165Y615315I0J3175D01*
G01*
X1047115Y621665D02*
G03*
X1047115Y615315I0J-3175D01*
G01*
Y634365D02*
G03*
X1047115Y628015I0J-3175D01*
G01*
X1066165Y621665D02*
G03*
X1066165Y628015I0J3175D01*
G01*
Y634365D02*
G03*
X1066165Y640715I0J3175D01*
G01*
X852720Y977300D02*
G03*
X852720Y977300I-1000J0D01*
G01*
X884580Y1106200D02*
G03*
X884580Y1106200I-1000J0D01*
G01*
X849030Y683260D02*
G03*
X849030Y683260I-1000J0D01*
G01*
X1113020Y1170340D02*
G03*
X1113020Y1170340I-1000J0D01*
G01*
X1047115Y605790D02*
Y608965D01*
X1066165D01*
X1047115Y615315D02*
X1066165D01*
X1047115Y621665D02*
X1066165D01*
X1047115Y628015D02*
X1066165D01*
X1047115Y634365D02*
X1066165D01*
X1047115Y640715D02*
X1066165D01*
X1047115D02*
Y643890D01*
D47*
X954219Y1176156D02*
Y1221604D01*
X927011Y1176156D02*
X954219D01*
X927011D02*
Y1221604D01*
D78*
X883560Y798580D02*
X890930D01*
X883310Y811780D02*
X890930D01*
X885850Y867660D02*
X893220D01*
X885850Y854460D02*
X893470D01*
X821440Y997610D02*
Y1004980D01*
X834640Y997610D02*
Y1005230D01*
X821940Y1184500D02*
Y1191870D01*
X808740Y1184250D02*
Y1191870D01*
X788420Y998830D02*
Y1006200D01*
X801620Y998830D02*
Y1006450D01*
X822350Y1101340D02*
X829720D01*
X822350Y1088140D02*
X829970D01*
X930660Y1124610D02*
Y1131980D01*
X943860Y1124610D02*
Y1132230D01*
X796950Y738120D02*
X804320D01*
X796950Y724920D02*
X804570D01*
X797200Y773180D02*
X804570D01*
X796950Y786380D02*
X804570D01*
X892560Y1000150D02*
Y1007520D01*
X905760Y1000150D02*
Y1007770D01*
X1072900Y1193190D02*
Y1200560D01*
X1086100Y1193190D02*
Y1200810D01*
X1161800Y1191870D02*
Y1199240D01*
X1175000Y1191870D02*
Y1199490D01*
D79*
X955053Y1185672D02*
Y1191768D01*
M02*
