G04 Layer_Physical_Order=2*
G04 Layer_Color=16711680*
%FSLAX44Y44*%
%MOMM*%
G71*
G01*
G75*
%ADD32C,0.2540*%
%ADD33C,0.4000*%
%ADD34C,0.5000*%
%ADD35R,1.2000X1.2000*%
%ADD36C,1.4980*%
%ADD37R,1.4980X1.4980*%
%ADD38C,1.3080*%
%ADD39R,1.0000X1.0000*%
%ADD40R,1.4980X1.4980*%
%ADD41R,1.0000X1.0000*%
%ADD42C,1.2700*%
D32*
X767080Y861060D02*
X822960D01*
X835660Y873760D01*
X793750Y1093470D02*
X795020Y1094740D01*
X793750Y880110D02*
Y1093470D01*
X792480Y878840D02*
X793750Y880110D01*
X1163320Y899160D02*
X1181100Y881380D01*
Y609600D02*
Y881380D01*
X1231900Y541020D02*
Y609600D01*
X1181100Y490220D02*
X1231900Y541020D01*
X1051560Y490220D02*
X1181100D01*
D33*
X1577340Y1051560D02*
X1610360Y1084580D01*
X1724660D01*
X1742440Y1066800D01*
Y1059520D02*
Y1066800D01*
X784860Y777240D02*
X835660D01*
X764540Y797560D02*
X784860Y777240D01*
X1122680Y1140460D02*
X1170940D01*
X1181100Y1130300D01*
X1094740Y881380D02*
X1158240Y817880D01*
X1102360Y1171255D02*
Y1173480D01*
X1094740Y1163634D02*
X1102360Y1171255D01*
X1094740Y881380D02*
Y1163634D01*
X960120Y1103526D02*
X1028014Y1171420D01*
X1031764Y1184164D02*
X1033780Y1186180D01*
X949960Y975360D02*
X960120Y985520D01*
Y1103526D01*
X962660Y1127760D02*
X982980Y1148080D01*
Y1165860D01*
X1028014Y1171420D02*
X1028014D01*
X1031764Y1175170D01*
X962660Y1125220D02*
Y1127760D01*
X1130300Y739870D02*
X1170940Y780510D01*
X1150620Y894080D02*
X1170940Y873760D01*
Y780510D02*
Y873760D01*
X1163320Y955040D02*
X1181100D01*
X1150620Y942340D02*
X1163320Y955040D01*
X1150620Y894080D02*
Y942340D01*
X1130300Y609585D02*
Y739870D01*
X1043940Y624840D02*
X1056640Y612140D01*
X1076960D02*
X1112520Y647700D01*
X1056640Y612140D02*
X1076960D01*
X1196340Y970280D02*
Y1038845D01*
X1181100Y955040D02*
X1196340Y970280D01*
X1031764Y1175170D02*
Y1184164D01*
X1107440Y1033795D02*
X1122680Y1049035D01*
Y1140460D01*
D34*
X927100Y1234440D02*
X1343660D01*
X845820Y1130300D02*
X929640Y1214120D01*
X1031629Y662551D02*
X1069340Y624840D01*
X881769Y662551D02*
X1031629D01*
X1244600Y845820D02*
X1275080D01*
X1310640Y881380D01*
Y1031240D01*
X1193800Y1059180D02*
X1282700D01*
X1310640Y1031240D01*
X1158240Y1023620D02*
X1193800Y1059180D01*
X1004225Y988985D02*
X1074374D01*
X977900Y962660D02*
X1004225Y988985D01*
X937260Y962660D02*
X977900D01*
X919480Y975360D02*
X932649Y962191D01*
X936791D01*
X937260Y962660D01*
X919480Y975360D02*
Y1026160D01*
X876300Y1101421D02*
X885624Y1092097D01*
X866140Y1079500D02*
X919480Y1026160D01*
X876300Y1101421D02*
Y1102360D01*
X885624Y1076124D02*
Y1092097D01*
X860883Y1094917D02*
X866140Y1089660D01*
Y1079500D02*
Y1089660D01*
X859410Y1107663D02*
X860883Y1106189D01*
Y1094917D02*
Y1106189D01*
X845820Y1107440D02*
X848360Y1104900D01*
Y1076960D02*
Y1104900D01*
X1135380Y1203960D02*
X1239520Y1099820D01*
X916940Y1120140D02*
X1000760Y1203960D01*
X1135380D01*
X845820Y1107440D02*
Y1130300D01*
X863600Y680720D02*
X881769Y662551D01*
X1079500Y876300D02*
Y916940D01*
Y876300D02*
X1142199Y813601D01*
X1140460Y807720D02*
X1141933Y809193D01*
Y813335D01*
X1142199Y813601D01*
X1049020Y947420D02*
X1079500Y916940D01*
X848360Y972820D02*
X873760Y947420D01*
X1049020D01*
D35*
X1691640Y1059520D02*
D03*
X1717040D02*
D03*
X1742440D02*
D03*
X1691640Y1239520D02*
D03*
X1717040D02*
D03*
X1742440D02*
D03*
X1691640Y797900D02*
D03*
X1717040D02*
D03*
X1742440D02*
D03*
X1691640Y977900D02*
D03*
X1717040D02*
D03*
X1742440D02*
D03*
X1691640Y533740D02*
D03*
X1717040D02*
D03*
X1742440D02*
D03*
X1691640Y713740D02*
D03*
X1717040D02*
D03*
X1742440D02*
D03*
X1691640Y277200D02*
D03*
X1717040D02*
D03*
X1742440D02*
D03*
X1691640Y457200D02*
D03*
X1717040D02*
D03*
X1742440D02*
D03*
D36*
X1345160Y949240D02*
D03*
X1280160D02*
D03*
Y904240D02*
D03*
X1127760Y347980D02*
D03*
Y412980D02*
D03*
X1082760D02*
D03*
D37*
X1345160Y904240D02*
D03*
D38*
X1043940Y624840D02*
D03*
X1069340D02*
D03*
D39*
X1130300Y609585D02*
D03*
X1155700Y609600D02*
D03*
X1181100D02*
D03*
X1206500D02*
D03*
X1231900D02*
D03*
X980440Y1033780D02*
D03*
X1005840D02*
D03*
X1031240D02*
D03*
X1056640D02*
D03*
X1082040D02*
D03*
X1107440Y1033795D02*
D03*
X1196340Y1038845D02*
D03*
X1221740Y1038860D02*
D03*
X1247140D02*
D03*
X1272540D02*
D03*
D40*
X1082760Y347980D02*
D03*
D41*
X1033780Y1183640D02*
D03*
X1033795Y1158240D02*
D03*
D42*
X1577340Y1051560D02*
D03*
X764540Y797560D02*
D03*
X835660Y777240D02*
D03*
X927100Y1234440D02*
D03*
X929640Y1214120D02*
D03*
X1343660Y1234440D02*
D03*
X1181100Y1130300D02*
D03*
X835660Y873760D02*
D03*
X767080Y861060D02*
D03*
X795020Y1094740D02*
D03*
X1244600Y845820D02*
D03*
X1158240Y1023620D02*
D03*
X1074374Y988985D02*
D03*
X885624Y1076124D02*
D03*
X848360Y1076960D02*
D03*
X859410Y1107663D02*
D03*
X876300Y1102360D02*
D03*
X1239520Y1099820D02*
D03*
X916940Y1120140D02*
D03*
X982980Y1165860D02*
D03*
X962660Y1125220D02*
D03*
X792480Y878840D02*
D03*
X848360Y972820D02*
D03*
X1163320Y899160D02*
D03*
X1051560Y490220D02*
D03*
X1112520Y647700D02*
D03*
X863600Y680720D02*
D03*
X1158240Y817880D02*
D03*
X1181100Y955040D02*
D03*
X1140460Y807720D02*
D03*
X949960Y975360D02*
D03*
X1122680Y1140460D02*
D03*
X1102360Y1173480D02*
D03*
M02*
