M48
;Layer_Color=9474304
;FILE_FORMAT=4:4
METRIC,LZ
;TYPE=PLATED
T1F00S00C0.7112
T2F00S00C0.7620
T3F00S00C0.8000
T4F00S00C0.9900
%
T01
X0105156Y0049022
X0111252Y006477
X008636Y0068072
X0083566Y0077724
X0076454Y0079756
X0076708Y0086106
X0079248Y0087884
X0083566Y0087376
X0084836Y0097282
Y0107696
X00885624Y01076124
X008763Y0110236
X0085941Y01107663
X0091694Y0112014
X0096266Y0112522
X0098298Y0116586
X0110236Y0117348
X0112268Y0114046
X011811Y011303
X0115824Y0102362
X011811Y0095504
X0116332Y0089916
X0115824Y0081788
X0114046Y0080772
X01074374Y00988985
X0094996Y0097536
X0079502Y0109474
X0123952Y0109982
X012446Y0084582
X0157734Y0105156
X0134366Y0123444
X009271
X0092964Y0121412
T02
X0169164Y002772
X0171704
X0174244
Y004572
X0171704
X0169164
Y0053374
X0171704
X0174244
Y0071374
X0171704
X0169164
X012319Y006096
X012065
X011811
X011557
X011303Y00609585
X0110744Y01033795
X0108204Y0103378
X0105664
X0103124
X0100584
X0098044
X01033795Y0115824
X0103378Y0118364
X0119634Y01038845
X0122174Y0103886
X0124714
X0127254
X0169164Y0105952
X0171704
X0174244
Y009779
X0171704
X0169164
Y007979
X0171704
X0174244
Y0123952
X0171704
X0169164
T03
X0104394Y0062484
X0106934
T04
X0108276Y0034798
X0112776
Y0041298
X0108276
X0128016Y0090424
Y0094924
X0134516
Y0090424
M30
