G04 Layer_Color=16711935*
%FSLAX44Y44*%
%MOMM*%
G71*
G01*
G75*
%ADD70R,1.4032X1.4032*%
%ADD71C,1.7012*%
%ADD72R,1.7012X1.7012*%
%ADD73C,1.5112*%
%ADD74R,1.2032X1.2032*%
%ADD75R,1.7012X1.7012*%
%ADD76R,1.2032X1.2032*%
%ADD77C,1.4732*%
D70*
X1691640Y1059520D02*
D03*
X1717040D02*
D03*
X1742440D02*
D03*
X1691640Y1239520D02*
D03*
X1717040D02*
D03*
X1742440D02*
D03*
X1691640Y797900D02*
D03*
X1717040D02*
D03*
X1742440D02*
D03*
X1691640Y977900D02*
D03*
X1717040D02*
D03*
X1742440D02*
D03*
X1691640Y533740D02*
D03*
X1717040D02*
D03*
X1742440D02*
D03*
X1691640Y713740D02*
D03*
X1717040D02*
D03*
X1742440D02*
D03*
X1691640Y277200D02*
D03*
X1717040D02*
D03*
X1742440D02*
D03*
X1691640Y457200D02*
D03*
X1717040D02*
D03*
X1742440D02*
D03*
D71*
X1345160Y949240D02*
D03*
X1280160D02*
D03*
Y904240D02*
D03*
X1127760Y347980D02*
D03*
Y412980D02*
D03*
X1082760D02*
D03*
D72*
X1345160Y904240D02*
D03*
D73*
X1043940Y624840D02*
D03*
X1069340D02*
D03*
D74*
X1130300Y609585D02*
D03*
X1155700Y609600D02*
D03*
X1181100D02*
D03*
X1206500D02*
D03*
X1231900D02*
D03*
X980440Y1033780D02*
D03*
X1005840D02*
D03*
X1031240D02*
D03*
X1056640D02*
D03*
X1082040D02*
D03*
X1107440Y1033795D02*
D03*
X1196340Y1038845D02*
D03*
X1221740Y1038860D02*
D03*
X1247140D02*
D03*
X1272540D02*
D03*
D75*
X1082760Y347980D02*
D03*
D76*
X1033780Y1183640D02*
D03*
X1033795Y1158240D02*
D03*
D77*
X1577340Y1051560D02*
D03*
X764540Y797560D02*
D03*
X835660Y777240D02*
D03*
X927100Y1234440D02*
D03*
X929640Y1214120D02*
D03*
X1343660Y1234440D02*
D03*
X1181100Y1130300D02*
D03*
X835660Y873760D02*
D03*
X767080Y861060D02*
D03*
X795020Y1094740D02*
D03*
X1244600Y845820D02*
D03*
X1158240Y1023620D02*
D03*
X1074374Y988985D02*
D03*
X885624Y1076124D02*
D03*
X848360Y1076960D02*
D03*
X859410Y1107663D02*
D03*
X876300Y1102360D02*
D03*
X1239520Y1099820D02*
D03*
X916940Y1120140D02*
D03*
X982980Y1165860D02*
D03*
X962660Y1125220D02*
D03*
X792480Y878840D02*
D03*
X848360Y972820D02*
D03*
X1163320Y899160D02*
D03*
X1051560Y490220D02*
D03*
X1112520Y647700D02*
D03*
X863600Y680720D02*
D03*
X1158240Y817880D02*
D03*
X1181100Y955040D02*
D03*
X1140460Y807720D02*
D03*
X949960Y975360D02*
D03*
X1122680Y1140460D02*
D03*
X1102360Y1173480D02*
D03*
M02*
