G04 Layer_Color=2752767*
%FSLAX44Y44*%
%MOMM*%
G71*
G01*
G75*
%ADD82C,0.0508*%
%ADD83C,0.0677*%
D82*
X1689608Y1057488D02*
Y1061552D01*
X1693672D01*
Y1057488D01*
X1689608D01*
X1715008D02*
Y1061552D01*
X1719072D01*
Y1057488D01*
X1715008D01*
X1740408D02*
Y1061552D01*
X1744472D01*
Y1057488D01*
X1740408D01*
X1689608Y1237488D02*
Y1241552D01*
X1693672D01*
Y1237488D01*
X1689608D01*
X1715008D02*
Y1241552D01*
X1719072D01*
Y1237488D01*
X1715008D01*
X1740408D02*
Y1241552D01*
X1744472D01*
Y1237488D01*
X1740408D01*
X1689608Y795868D02*
Y799932D01*
X1693672D01*
Y795868D01*
X1689608D01*
X1715008D02*
Y799932D01*
X1719072D01*
Y795868D01*
X1715008D01*
X1740408D02*
Y799932D01*
X1744472D01*
Y795868D01*
X1740408D01*
X1689608Y975868D02*
Y979932D01*
X1693672D01*
Y975868D01*
X1689608D01*
X1715008D02*
Y979932D01*
X1719072D01*
Y975868D01*
X1715008D01*
X1740408D02*
Y979932D01*
X1744472D01*
Y975868D01*
X1740408D01*
X1689608Y531708D02*
Y535772D01*
X1693672D01*
Y531708D01*
X1689608D01*
X1715008D02*
Y535772D01*
X1719072D01*
Y531708D01*
X1715008D01*
X1740408D02*
Y535772D01*
X1744472D01*
Y531708D01*
X1740408D01*
X1689608Y711708D02*
Y715772D01*
X1693672D01*
Y711708D01*
X1689608D01*
X1715008D02*
Y715772D01*
X1719072D01*
Y711708D01*
X1715008D01*
X1740408D02*
Y715772D01*
X1744472D01*
Y711708D01*
X1740408D01*
X1689608Y275168D02*
Y279232D01*
X1693672D01*
Y275168D01*
X1689608D01*
X1715008D02*
Y279232D01*
X1719072D01*
Y275168D01*
X1715008D01*
X1740408D02*
Y279232D01*
X1744472D01*
Y275168D01*
X1740408D01*
X1689608Y455168D02*
Y459232D01*
X1693672D01*
Y455168D01*
X1689608D01*
X1715008D02*
Y459232D01*
X1719072D01*
Y455168D01*
X1715008D01*
X1740408D02*
Y459232D01*
X1744472D01*
Y455168D01*
X1740408D01*
X1043940Y622808D02*
X1041908Y626872D01*
X1045972D01*
X1043940Y622808D01*
X1069340D02*
X1067308Y626872D01*
X1071372D01*
X1069340Y622808D01*
X1128268Y607553D02*
Y611617D01*
X1132332D01*
Y607553D01*
X1128268D01*
X1153668Y607568D02*
Y611632D01*
X1157732D01*
Y607568D01*
X1153668D01*
X1179068D02*
Y611632D01*
X1183132D01*
Y607568D01*
X1179068D01*
X1204468D02*
Y611632D01*
X1208532D01*
Y607568D01*
X1204468D01*
X1229868D02*
Y611632D01*
X1233932D01*
Y607568D01*
X1229868D01*
X978408Y1031748D02*
Y1035812D01*
X982472D01*
Y1031748D01*
X978408D01*
X1003808D02*
Y1035812D01*
X1007872D01*
Y1031748D01*
X1003808D01*
X1029208D02*
Y1035812D01*
X1033272D01*
Y1031748D01*
X1029208D01*
X1054608D02*
Y1035812D01*
X1058672D01*
Y1031748D01*
X1054608D01*
X1080008D02*
Y1035812D01*
X1084072D01*
Y1031748D01*
X1080008D01*
X1105408Y1031763D02*
Y1035827D01*
X1109472D01*
Y1031763D01*
X1105408D01*
X1194308Y1036813D02*
Y1040877D01*
X1198372D01*
Y1036813D01*
X1194308D01*
X1219708Y1036828D02*
Y1040892D01*
X1223772D01*
Y1036828D01*
X1219708D01*
X1245108D02*
Y1040892D01*
X1249172D01*
Y1036828D01*
X1245108D01*
X1270508D02*
Y1040892D01*
X1274572D01*
Y1036828D01*
X1270508D01*
X1031748Y1181608D02*
Y1185672D01*
X1035812D01*
Y1181608D01*
X1031748D01*
X1031763Y1156208D02*
Y1160272D01*
X1035827D01*
Y1156208D01*
X1031763D01*
X1577340Y1049528D02*
X1578356Y1050544D01*
X1579372D01*
X1578356Y1051560D01*
X1579372Y1052576D01*
X1578356D01*
X1577340Y1053592D01*
X1576324Y1052576D01*
X1575308D01*
X1576324Y1051560D01*
X1575308Y1050544D01*
X1576324D01*
X1577340Y1049528D01*
X764540Y795528D02*
X765556Y796544D01*
X766572D01*
X765556Y797560D01*
X766572Y798576D01*
X765556D01*
X764540Y799592D01*
X763524Y798576D01*
X762508D01*
X763524Y797560D01*
X762508Y796544D01*
X763524D01*
X764540Y795528D01*
X835660Y775208D02*
X836676Y776224D01*
X837692D01*
X836676Y777240D01*
X837692Y778256D01*
X836676D01*
X835660Y779272D01*
X834644Y778256D01*
X833628D01*
X834644Y777240D01*
X833628Y776224D01*
X834644D01*
X835660Y775208D01*
X927100Y1232408D02*
X928116Y1233424D01*
X929132D01*
X928116Y1234440D01*
X929132Y1235456D01*
X928116D01*
X927100Y1236472D01*
X926084Y1235456D01*
X925068D01*
X926084Y1234440D01*
X925068Y1233424D01*
X926084D01*
X927100Y1232408D01*
X929640Y1212088D02*
X930656Y1213104D01*
X931672D01*
X930656Y1214120D01*
X931672Y1215136D01*
X930656D01*
X929640Y1216152D01*
X928624Y1215136D01*
X927608D01*
X928624Y1214120D01*
X927608Y1213104D01*
X928624D01*
X929640Y1212088D01*
X1343660Y1232408D02*
X1344676Y1233424D01*
X1345692D01*
X1344676Y1234440D01*
X1345692Y1235456D01*
X1344676D01*
X1343660Y1236472D01*
X1342644Y1235456D01*
X1341628D01*
X1342644Y1234440D01*
X1341628Y1233424D01*
X1342644D01*
X1343660Y1232408D01*
X1181100Y1128268D02*
X1182116Y1129284D01*
X1183132D01*
X1182116Y1130300D01*
X1183132Y1131316D01*
X1182116D01*
X1181100Y1132332D01*
X1180084Y1131316D01*
X1179068D01*
X1180084Y1130300D01*
X1179068Y1129284D01*
X1180084D01*
X1181100Y1128268D01*
X835660Y871728D02*
X836676Y872744D01*
X837692D01*
X836676Y873760D01*
X837692Y874776D01*
X836676D01*
X835660Y875792D01*
X834644Y874776D01*
X833628D01*
X834644Y873760D01*
X833628Y872744D01*
X834644D01*
X835660Y871728D01*
X767080Y859028D02*
X768096Y860044D01*
X769112D01*
X768096Y861060D01*
X769112Y862076D01*
X768096D01*
X767080Y863092D01*
X766064Y862076D01*
X765048D01*
X766064Y861060D01*
X765048Y860044D01*
X766064D01*
X767080Y859028D01*
X795020Y1092708D02*
X796036Y1093724D01*
X797052D01*
X796036Y1094740D01*
X797052Y1095756D01*
X796036D01*
X795020Y1096772D01*
X794004Y1095756D01*
X792988D01*
X794004Y1094740D01*
X792988Y1093724D01*
X794004D01*
X795020Y1092708D01*
X1244600Y843788D02*
X1245616Y844804D01*
X1246632D01*
X1245616Y845820D01*
X1246632Y846836D01*
X1245616D01*
X1244600Y847852D01*
X1243584Y846836D01*
X1242568D01*
X1243584Y845820D01*
X1242568Y844804D01*
X1243584D01*
X1244600Y843788D01*
X1158240Y1021588D02*
X1159256Y1022604D01*
X1160272D01*
X1159256Y1023620D01*
X1160272Y1024636D01*
X1159256D01*
X1158240Y1025652D01*
X1157224Y1024636D01*
X1156208D01*
X1157224Y1023620D01*
X1156208Y1022604D01*
X1157224D01*
X1158240Y1021588D01*
X1074374Y986953D02*
X1075390Y987969D01*
X1076406D01*
X1075390Y988985D01*
X1076406Y990001D01*
X1075390D01*
X1074374Y991017D01*
X1073358Y990001D01*
X1072342D01*
X1073358Y988985D01*
X1072342Y987969D01*
X1073358D01*
X1074374Y986953D01*
X885624Y1074092D02*
X886640Y1075108D01*
X887656D01*
X886640Y1076124D01*
X887656Y1077140D01*
X886640D01*
X885624Y1078156D01*
X884608Y1077140D01*
X883592D01*
X884608Y1076124D01*
X883592Y1075108D01*
X884608D01*
X885624Y1074092D01*
X848360Y1074928D02*
X849376Y1075944D01*
X850392D01*
X849376Y1076960D01*
X850392Y1077976D01*
X849376D01*
X848360Y1078992D01*
X847344Y1077976D01*
X846328D01*
X847344Y1076960D01*
X846328Y1075944D01*
X847344D01*
X848360Y1074928D01*
X859410Y1105630D02*
X860426Y1106646D01*
X861442D01*
X860426Y1107663D01*
X861442Y1108679D01*
X860426D01*
X859410Y1109695D01*
X858394Y1108679D01*
X857378D01*
X858394Y1107663D01*
X857378Y1106646D01*
X858394D01*
X859410Y1105630D01*
X876300Y1100328D02*
X877316Y1101344D01*
X878332D01*
X877316Y1102360D01*
X878332Y1103376D01*
X877316D01*
X876300Y1104392D01*
X875284Y1103376D01*
X874268D01*
X875284Y1102360D01*
X874268Y1101344D01*
X875284D01*
X876300Y1100328D01*
X1239520Y1097788D02*
X1240536Y1098804D01*
X1241552D01*
X1240536Y1099820D01*
X1241552Y1100836D01*
X1240536D01*
X1239520Y1101852D01*
X1238504Y1100836D01*
X1237488D01*
X1238504Y1099820D01*
X1237488Y1098804D01*
X1238504D01*
X1239520Y1097788D01*
X916940Y1118108D02*
X917956Y1119124D01*
X918972D01*
X917956Y1120140D01*
X918972Y1121156D01*
X917956D01*
X916940Y1122172D01*
X915924Y1121156D01*
X914908D01*
X915924Y1120140D01*
X914908Y1119124D01*
X915924D01*
X916940Y1118108D01*
X982980Y1163828D02*
X983996Y1164844D01*
X985012D01*
X983996Y1165860D01*
X985012Y1166876D01*
X983996D01*
X982980Y1167892D01*
X981964Y1166876D01*
X980948D01*
X981964Y1165860D01*
X980948Y1164844D01*
X981964D01*
X982980Y1163828D01*
X962660Y1123188D02*
X963676Y1124204D01*
X964692D01*
X963676Y1125220D01*
X964692Y1126236D01*
X963676D01*
X962660Y1127252D01*
X961644Y1126236D01*
X960628D01*
X961644Y1125220D01*
X960628Y1124204D01*
X961644D01*
X962660Y1123188D01*
X792480Y876808D02*
X793496Y877824D01*
X794512D01*
X793496Y878840D01*
X794512Y879856D01*
X793496D01*
X792480Y880872D01*
X791464Y879856D01*
X790448D01*
X791464Y878840D01*
X790448Y877824D01*
X791464D01*
X792480Y876808D01*
X848360Y970788D02*
X849376Y971804D01*
X850392D01*
X849376Y972820D01*
X850392Y973836D01*
X849376D01*
X848360Y974852D01*
X847344Y973836D01*
X846328D01*
X847344Y972820D01*
X846328Y971804D01*
X847344D01*
X848360Y970788D01*
X1163320Y897128D02*
X1164336Y898144D01*
X1165352D01*
X1164336Y899160D01*
X1165352Y900176D01*
X1164336D01*
X1163320Y901192D01*
X1162304Y900176D01*
X1161288D01*
X1162304Y899160D01*
X1161288Y898144D01*
X1162304D01*
X1163320Y897128D01*
X1051560Y488188D02*
X1052576Y489204D01*
X1053592D01*
X1052576Y490220D01*
X1053592Y491236D01*
X1052576D01*
X1051560Y492252D01*
X1050544Y491236D01*
X1049528D01*
X1050544Y490220D01*
X1049528Y489204D01*
X1050544D01*
X1051560Y488188D01*
X1112520Y645668D02*
X1113536Y646684D01*
X1114552D01*
X1113536Y647700D01*
X1114552Y648716D01*
X1113536D01*
X1112520Y649732D01*
X1111504Y648716D01*
X1110488D01*
X1111504Y647700D01*
X1110488Y646684D01*
X1111504D01*
X1112520Y645668D01*
X863600Y678688D02*
X864616Y679704D01*
X865632D01*
X864616Y680720D01*
X865632Y681736D01*
X864616D01*
X863600Y682752D01*
X862584Y681736D01*
X861568D01*
X862584Y680720D01*
X861568Y679704D01*
X862584D01*
X863600Y678688D01*
X1158240Y815848D02*
X1159256Y816864D01*
X1160272D01*
X1159256Y817880D01*
X1160272Y818896D01*
X1159256D01*
X1158240Y819912D01*
X1157224Y818896D01*
X1156208D01*
X1157224Y817880D01*
X1156208Y816864D01*
X1157224D01*
X1158240Y815848D01*
X1181100Y953008D02*
X1182116Y954024D01*
X1183132D01*
X1182116Y955040D01*
X1183132Y956056D01*
X1182116D01*
X1181100Y957072D01*
X1180084Y956056D01*
X1179068D01*
X1180084Y955040D01*
X1179068Y954024D01*
X1180084D01*
X1181100Y953008D01*
X1140460Y805688D02*
X1141476Y806704D01*
X1142492D01*
X1141476Y807720D01*
X1142492Y808736D01*
X1141476D01*
X1140460Y809752D01*
X1139444Y808736D01*
X1138428D01*
X1139444Y807720D01*
X1138428Y806704D01*
X1139444D01*
X1140460Y805688D01*
X949960Y973328D02*
X950976Y974344D01*
X951992D01*
X950976Y975360D01*
X951992Y976376D01*
X950976D01*
X949960Y977392D01*
X948944Y976376D01*
X947928D01*
X948944Y975360D01*
X947928Y974344D01*
X948944D01*
X949960Y973328D01*
X1122680Y1138428D02*
X1123696Y1139444D01*
X1124712D01*
X1123696Y1140460D01*
X1124712Y1141476D01*
X1123696D01*
X1122680Y1142492D01*
X1121664Y1141476D01*
X1120648D01*
X1121664Y1140460D01*
X1120648Y1139444D01*
X1121664D01*
X1122680Y1138428D01*
X1102360Y1171448D02*
X1103376Y1172464D01*
X1104392D01*
X1103376Y1173480D01*
X1104392Y1174496D01*
X1103376D01*
X1102360Y1175512D01*
X1101344Y1174496D01*
X1100328D01*
X1101344Y1173480D01*
X1100328Y1172464D01*
X1101344D01*
X1102360Y1171448D01*
D83*
X1347192Y949240D02*
G03*
X1347192Y949240I-2032J0D01*
G01*
Y904240D02*
G03*
X1347192Y904240I-2032J0D01*
G01*
X1282192Y949240D02*
G03*
X1282192Y949240I-2032J0D01*
G01*
Y904240D02*
G03*
X1282192Y904240I-2032J0D01*
G01*
X1129792Y347980D02*
G03*
X1129792Y347980I-2032J0D01*
G01*
X1084792D02*
G03*
X1084792Y347980I-2032J0D01*
G01*
X1129792Y412980D02*
G03*
X1129792Y412980I-2032J0D01*
G01*
X1084792D02*
G03*
X1084792Y412980I-2032J0D01*
G01*
M02*
